<?xml version="1.0" encoding="utf-8"?>
<!-- Generator: Adobe Illustrator 25.3.1, SVG Export Plug-In . SVG Version: 6.00 Build 0)  -->
<svg version="1.1" id="Layer_1" xmlns="http://www.w3.org/2000/svg" xmlns:xlink="http://www.w3.org/1999/xlink" x="0px" y="0px"
	 viewBox="0 0 100 100" style="enable-background:new 0 0 100 100;" xml:space="preserve">
<style type="text/css">
	.st0{fill:#BDDFD5;}
	.st1{fill:#117755;}
	.st2{display:none;}
	.st3{display:inline;}
	.st4{fill:#FFF3DC;}
	.st5{fill:#FDCB5C;}
	.st6{fill:#F9BDC4;}
	.st7{fill:#EB6523;}
	.st8{fill:#FADFED;}
	.st9{fill:#E67EB0;}
	.st10{fill:#FFF3EE;stroke:#EB6523;stroke-miterlimit:10;}
	.st11{fill:#FFF9F3;stroke:#E67EB0;stroke-miterlimit:10;}
	.st12{fill:#FFF7E9;}
	.st13{fill:none;stroke:#117755;stroke-miterlimit:10;}
	.st14{fill:#FFF3DC;stroke:#FDCB5C;stroke-miterlimit:10;}
</style>
<g class="st2">
	<g class="st3">
		<path class="st0" d="M116.54,20c-0.63-0.3-1.34-0.45-2.13-0.45c-0.14,0-0.28,0-0.39,0c-0.29,0-0.59,0.01-0.9,0.04
			c-1.65,0.14-3.33,0.21-5.05,0.21c-0.24,0-0.49,0-0.75,0c-0.24,0-0.48,0-0.72,0l-24.76,0.04c-0.07,0.02-0.21,0.04-0.43,0.04
			c-0.12,0-0.26,0.01-0.43,0.04H80.8c-1,0.05-2.28,0.39-3.81,1.02c-1.54,0.63-3,1.78-4.37,3.44c-1.37,1.66-2.29,4.07-2.74,7.22v0.07
			c-0.12,1.05-0.02,2.08,0.31,3.08c0.32,1,0.85,1.85,1.58,2.54c0.73,0.69,1.65,1.04,2.78,1.04c1.19,0,2.32-0.41,3.37-1.22
			c1.05-0.81,1.74-1.78,2.08-2.9c0.07-0.24,0.12-0.47,0.14-0.68c0.09-0.81-0.06-1.52-0.47-2.11c-0.21-0.31-0.39-0.57-0.54-0.79
			c-0.19-0.24-0.34-0.44-0.43-0.59c-0.1-0.15-0.16-0.29-0.18-0.39c-0.02-0.11-0.04-0.23-0.04-0.38c0.17-0.64,0.66-1.18,1.49-1.61
			c0.83-0.43,1.5-0.64,2.02-0.64c0.84,0,1.46,0.29,1.86,0.88c0.41,0.59,0.56,1.3,0.47,2.13l-4.16,33.75
			c-0.14,0.81-0.53,1.36-1.15,1.63c-0.62,0.28-1.27,0.41-1.93,0.41c-0.64,0-1.24,0.34-1.77,1.02c-0.54,0.68-0.88,1.51-1.02,2.49
			c-0.1,0.98,0.04,1.81,0.41,2.49c0.37,0.68,0.88,1.02,1.52,1.02h31.1c0.6,0,1.12-0.17,1.58-0.5c0.45-0.33,0.86-0.75,1.22-1.25
			c0.26-0.38,0.64-0.96,1.15-1.72c0.14-0.24,0.3-0.49,0.47-0.75c0.05-0.05,0.08-0.08,0.11-0.11c0.67-1.03,1.33-2.11,1.97-3.24
			c0.64-1.13,1.04-2.19,1.18-3.17c0.19-1.12-0.24-1.93-1.29-2.44c-0.26-0.1-0.51-0.14-0.75-0.14c-0.6,0-1.14,0.21-1.63,0.63
			c-0.49,0.42-0.91,0.9-1.27,1.45L109.64,62c-1.2,1.39-2.51,2.36-3.94,2.94c-1.39,0.57-4,0.86-7.85,0.86c-0.21,0-0.44,0-0.68,0
			c-0.86,0-1.72-0.04-2.58-0.13c-0.86-0.08-1.55-0.34-2.08-0.77c-0.53-0.43-0.73-1.15-0.61-2.15l1.58-12.97
			c0.64-0.07,1.27-0.11,1.86-0.11c0.07,0,0.14,0,0.21,0c0.95,0,1.85,0.13,2.69,0.38c0.84,0.25,1.56,0.66,2.19,1.24
			c0.21,0.21,0.39,0.45,0.54,0.72c0.24,0.38,0.54,0.72,0.9,1c0.5,0.38,1.06,0.57,1.68,0.57c0.26,0,0.55-0.04,0.86-0.11
			c0.93-0.29,1.65-0.85,2.15-1.68c0.29-0.64,0.64-2.57,1.07-5.77c0.09-0.79,0.19-1.5,0.29-2.15c0.21-1.89,0.31-3.03,0.29-3.44
			c-0.05-1.19-0.63-1.95-1.76-2.26c-0.17-0.02-0.34-0.04-0.5-0.04c-0.62,0-1.2,0.23-1.72,0.68c-0.38,0.43-0.67,0.93-0.86,1.5
			c-0.26,0.88-0.71,1.51-1.33,1.88c-0.62,0.37-1.36,0.59-2.22,0.66c-1.34,0.14-2.69,0.21-4.05,0.21c-0.45,0-0.92-0.01-1.4-0.04
			h-0.07l1.33-10.78c0.02-0.29,0.05-0.58,0.07-0.9c0.09-1.41,0.64-2.6,1.65-3.58c1.17-0.81,2.6-1.22,4.3-1.22
			c2.34-0.02,4.45,0.28,6.34,0.9c1.89,0.62,3.43,1.97,4.62,4.05c0.36,0.81,0.92,1.46,1.68,1.93c0.36,0.17,0.72,0.25,1.07,0.25
			c0.55,0,1.05-0.19,1.5-0.57c0.38-0.45,0.61-0.97,0.68-1.54c0.05-0.6,0.02-1.21-0.07-1.83c0-0.02-0.01-0.05-0.04-0.07
			c-0.14-1.29-0.13-2.59,0.04-3.9c0.05-0.43,0.12-0.87,0.21-1.33c0-0.05,0.01-0.11,0.02-0.18c0.01-0.07,0.03-0.13,0.05-0.18
			c0.12-0.31,0.2-0.61,0.25-0.9c0.05-0.62,0-1.21-0.14-1.76C117.62,20.78,117.17,20.3,116.54,20z"/>
		<path class="st0" d="M94.77,80.85c-0.81-0.84-1.77-1.25-2.87-1.25c-1.15,0-2.25,0.44-3.3,1.33c-0.64,0.72-1.17,1.52-1.58,2.4
			c-0.36,0.74-0.79,1.43-1.29,2.08c-0.64,0.84-1.36,1.43-2.13,1.77c-0.78,0.35-1.82,0.52-3.13,0.52h-0.04c-0.5,0-1.3-0.08-2.38-0.25
			c-1.09-0.17-2.4-0.68-3.92-1.54c-1.53-0.86-3.21-2.27-5.03-4.23c-1.83-1.96-3.74-4.69-5.75-8.2c-2.17-4.04-3.94-7.92-5.3-11.64
			c-0.72-1.91-1.4-3.81-2.06-5.7c-0.66-1.89-1.17-3.46-1.52-4.73c-0.62-2.27-0.96-3.48-1-3.62v-0.04c0.02,0,0.05-0.01,0.07-0.04
			c0.12-0.05,0.43-0.18,0.93-0.39c0.95-0.38,2.16-1.09,3.6-2.13c1.44-1.04,2.8-2.47,4.07-4.3c1.27-1.83,2.1-4.11,2.51-6.86
			c0.29-2.63-0.01-5-0.88-7.13c-0.87-2.13-2.2-3.83-3.99-5.11c-1.79-1.28-3.87-1.92-6.23-1.92h-24c-0.07,0.02-0.2,0.04-0.39,0.04
			c-0.12,0-0.26,0.01-0.43,0.04h-0.18c-1.15,0.05-2.59,0.48-4.33,1.29c-1.74,0.81-3.34,2.33-4.8,4.55
			c-1.03,1.89-1.63,3.86-1.79,5.91v0.04c-0.12,1.05-0.02,2.08,0.29,3.1c0.31,1.02,0.83,1.87,1.56,2.56
			c0.73,0.69,1.67,1.04,2.81,1.04c1.19,0,2.35-0.32,3.46-0.97c1.11-0.64,1.87-1.56,2.28-2.76c0.05-0.24,0.09-0.48,0.14-0.72
			c0.09-0.88-0.1-1.67-0.57-2.36c-0.31-0.43-0.56-0.78-0.75-1.04c-0.17-0.24-0.3-0.42-0.39-0.56c-0.1-0.13-0.16-0.25-0.18-0.36
			c-0.02-0.11-0.04-0.22-0.04-0.34v-0.04c0.05-0.24,0.15-0.47,0.32-0.7c0.17-0.23,0.36-0.41,0.57-0.56
			c1.24-0.76,2.56-1.15,3.94-1.15h1.36l-4.44,36.22c-0.12,1.1-0.4,1.83-0.84,2.19c-0.44,0.36-1.21,0.54-2.31,0.54
			c-0.64,0-1.24,0.34-1.77,1.02c-0.54,0.68-0.88,1.51-1.02,2.49c-0.1,0.98,0.04,1.81,0.41,2.49c0.37,0.68,0.88,1.02,1.52,1.02h17.27
			c0.64,0,1.24-0.34,1.77-1.02c0.54-0.68,0.88-1.51,1.02-2.49c0.09-0.98-0.04-1.81-0.41-2.49c-0.37-0.68-0.88-1.02-1.52-1.02h-0.29
			c-0.48,0-0.9-0.01-1.27-0.04c-0.37-0.02-0.63-0.1-0.77-0.21c-0.21-0.21-0.31-0.49-0.29-0.82c-0.02-0.33,0.23-2.77,0.75-7.31
			c0.41-3.65,0.64-5.91,0.72-6.77c0.02-0.21,0.04-0.33,0.04-0.36c0.02-0.1,0.06-0.18,0.11-0.25c0.05-0.07,0.11-0.11,0.18-0.11
			c0.12,0,0.24,0.14,0.36,0.43c1.38,5.21,3.08,10.52,5.09,15.94c2.01,5.42,4.45,10.35,7.34,14.8c1.46,2.24,3.34,4.35,5.66,6.32
			c2.32,1.97,4.97,3.58,7.95,4.84c2.98,1.25,6.22,1.88,9.71,1.88c1.86,0,3.83-0.21,5.91-0.64c2.08-0.43,4.05-1.13,5.93-2.1
			c1.88-0.97,3.48-2.25,4.82-3.85c0.76-1,1.21-2.07,1.33-3.19c0.14-1.15,0.01-2.26-0.39-3.33C94.9,80.99,94.85,80.92,94.77,80.85z
			 M52.5,34.45c-0.21,1.72-1.06,3.15-2.52,4.3c-1.47,1.15-3.52,1.72-6.14,1.72c-0.41,0-0.74-0.07-1-0.21
			c-0.26-0.14-0.39-0.32-0.39-0.54l1.36-10.86c0.02-0.21,0.18-0.39,0.48-0.54c0.3-0.14,0.65-0.21,1.06-0.21c1.77,0,3.2,0.3,4.3,0.9
			c1.1,0.6,1.88,1.37,2.35,2.33C52.45,32.29,52.62,33.33,52.5,34.45z"/>
		<path class="st1" d="M49.63,29.01c-1.1-0.6-2.53-0.9-4.3-0.9c-0.41,0-0.76,0.07-1.06,0.21c-0.3,0.14-0.46,0.32-0.48,0.54
			l-1.36,10.86c0,0.21,0.13,0.39,0.39,0.54c0.26,0.14,0.6,0.21,1,0.21c2.63,0,4.67-0.57,6.14-1.72c1.47-1.15,2.31-2.58,2.52-4.3
			c0.12-1.12-0.05-2.16-0.52-3.12C51.51,30.38,50.73,29.6,49.63,29.01z M52.07,34.45c-0.29,1.77-1.08,3.09-2.38,3.98
			c-1.3,0.88-2.77,1.4-4.39,1.54l0.86-6.81l0.25-0.14c0.14-0.07,0.29-0.11,0.45-0.13c0.16-0.01,0.27-0.02,0.34-0.02
			c0.88,0,1.75,0.1,2.6,0.3c0.85,0.2,1.61,0.56,2.28,1.06V34.45z"/>
		<path class="st1" d="M95.71,81.42c-0.69-1.5-1.96-2.26-3.8-2.26c-1.36,0-2.44,0.38-3.22,1.13c-0.79,0.75-1.46,1.71-2.01,2.88
			c-0.74,1.48-1.55,2.53-2.42,3.15c-0.87,0.62-2.11,0.93-3.71,0.93c-2.34,0-4.49-0.62-6.45-1.86c-1.96-1.24-3.74-2.82-5.34-4.73
			c-1.6-1.91-3.02-3.94-4.26-6.09c-1.24-2.15-2.31-4.18-3.19-6.09c-1.55-3.8-2.9-7.69-4.05-11.68l-1.4-4.51l0.64-0.25
			c0.84-0.36,1.62-0.79,2.36-1.29c0.09-0.07,0.19-0.13,0.29-0.18c4.54-2.98,7.14-7.06,7.81-12.22c0.31-2.79-0.04-5.37-1.04-7.74
			L64,26.28c-0.88-2.03-2.2-3.68-3.96-4.94c-1.75-1.27-3.9-1.9-6.43-1.9h-24c-1.84,0-3.76,0.49-5.77,1.47
			c-3.32,1.91-5.41,4.71-6.27,8.38c-0.17,0.79-0.3,1.59-0.39,2.4c-0.17,1.39,0.02,2.73,0.57,4.05l1.9,4.33
			c0.41,0.91,0.98,1.65,1.72,2.24c0.74,0.59,1.66,0.88,2.76,0.88c1.43,0,2.78-0.42,4.05-1.25c1.27-0.84,2.02-2.05,2.26-3.65
			c0.07-0.76-0.01-1.41-0.25-1.93l-1.4-3.19c0.72-0.74,1.59-1.19,2.62-1.36l-3.87,31.31c-0.1,0.98-0.33,1.61-0.7,1.88
			c-0.37,0.28-1.03,0.41-1.99,0.41c-0.62,0-1.16,0.22-1.63,0.66c-0.46,0.44-0.84,0.96-1.11,1.56c-0.28,0.6-0.45,1.17-0.52,1.72
			c-0.05,0.36-0.05,0.76,0,1.22c0.05,0.45,0.15,0.9,0.32,1.33l1.93,4.33c0.17,0.41,0.41,0.74,0.73,1c0.32,0.26,0.74,0.39,1.24,0.39
			h17.27c0.62,0,1.17-0.21,1.63-0.64c0.47-0.43,0.84-0.95,1.11-1.56c0.27-0.61,0.45-1.19,0.52-1.74c0.14-0.96,0-1.86-0.43-2.72
			l-1.93-4.33c-0.17-0.31-0.39-0.59-0.68-0.84c-0.29-0.25-0.68-0.38-1.18-0.38c0.07-0.6,0.14-1.21,0.21-1.83
			c0.07-0.6,0.14-1.19,0.21-1.79l0.47-4.84c1.1,3.73,2.6,7.97,4.51,12.72c0.24,0.48,0.45,0.96,0.64,1.43l1.9,4.33
			c2.03,4.87,4.5,9.15,7.4,12.83c2.9,3.68,6.86,6.6,11.88,8.78c3.1,1.27,6.39,1.9,9.85,1.9c1.84,0,3.84-0.22,6-0.66
			c2.16-0.44,4.22-1.16,6.18-2.15c1.96-0.99,3.59-2.31,4.91-3.96c0.91-1.19,1.44-2.48,1.61-3.87c0.12-0.96,0.02-1.79-0.29-2.51
			L95.71,81.42z M95.35,84.39c-0.12,1.12-0.56,2.19-1.33,3.19c-1.34,1.6-2.94,2.88-4.82,3.85c-1.87,0.97-3.85,1.67-5.93,2.1
			c-2.08,0.43-4.05,0.64-5.91,0.64c-3.49,0-6.72-0.63-9.71-1.88c-2.99-1.25-5.64-2.87-7.95-4.84c-2.32-1.97-4.2-4.08-5.66-6.32
			c-2.89-4.44-5.34-9.37-7.34-14.8c-2.01-5.42-3.7-10.74-5.09-15.94c-0.12-0.29-0.24-0.43-0.36-0.43c-0.07,0-0.13,0.04-0.18,0.11
			c-0.05,0.07-0.08,0.16-0.11,0.25c0,0.02-0.01,0.14-0.04,0.36c-0.07,0.86-0.31,3.12-0.72,6.77c-0.53,4.54-0.78,6.97-0.75,7.31
			c-0.02,0.33,0.07,0.61,0.29,0.82c0.14,0.12,0.4,0.19,0.77,0.21c0.37,0.02,0.79,0.04,1.27,0.04h0.29c0.64,0,1.15,0.34,1.52,1.02
			c0.37,0.68,0.51,1.51,0.41,2.49c-0.14,0.98-0.48,1.81-1.02,2.49c-0.54,0.68-1.13,1.02-1.77,1.02H23.95
			c-0.64,0-1.15-0.34-1.52-1.02c-0.37-0.68-0.51-1.51-0.41-2.49c0.14-0.98,0.48-1.81,1.02-2.49c0.54-0.68,1.13-1.02,1.77-1.02
			c1.1,0,1.87-0.18,2.31-0.54c0.44-0.36,0.72-1.09,0.84-2.19l4.44-36.22h-1.36c-1.39,0-2.7,0.38-3.94,1.15
			c-0.21,0.14-0.41,0.33-0.57,0.56c-0.17,0.23-0.28,0.46-0.32,0.7v0.04c0,0.12,0.01,0.23,0.04,0.34c0.02,0.11,0.08,0.23,0.18,0.36
			c0.09,0.13,0.23,0.32,0.39,0.56c0.19,0.26,0.44,0.61,0.75,1.04c0.48,0.69,0.67,1.48,0.57,2.36c-0.05,0.24-0.1,0.48-0.14,0.72
			c-0.41,1.19-1.16,2.11-2.28,2.76c-1.11,0.64-2.26,0.97-3.46,0.97c-1.15,0-2.08-0.35-2.81-1.04c-0.73-0.69-1.25-1.55-1.56-2.56
			c-0.31-1.01-0.41-2.05-0.29-3.1v-0.04c0.17-2.05,0.76-4.02,1.79-5.91c1.46-2.22,3.06-3.74,4.8-4.55c1.74-0.81,3.19-1.24,4.33-1.29
			h0.18c0.17-0.02,0.31-0.04,0.43-0.04c0.19,0,0.32-0.01,0.39-0.04h24c2.36,0,4.44,0.64,6.23,1.92c1.79,1.28,3.12,2.98,3.99,5.11
			c0.87,2.13,1.17,4.5,0.88,7.13c-0.41,2.75-1.24,5.03-2.51,6.86c-1.27,1.83-2.62,3.26-4.07,4.3c-1.45,1.04-2.65,1.75-3.6,2.13
			c-0.5,0.21-0.81,0.35-0.93,0.39c-0.02,0.02-0.05,0.04-0.07,0.04v0.04c0.05,0.14,0.38,1.35,1,3.62c0.36,1.27,0.87,2.84,1.52,4.73
			c0.66,1.89,1.34,3.79,2.06,5.7c1.36,3.73,3.13,7.61,5.3,11.64c2.01,3.51,3.92,6.25,5.75,8.2c1.83,1.96,3.5,3.37,5.03,4.23
			c1.53,0.86,2.84,1.37,3.92,1.54c1.09,0.17,1.88,0.25,2.38,0.25h0.04c1.31,0,2.36-0.17,3.13-0.52c0.78-0.35,1.49-0.94,2.13-1.77
			c0.5-0.64,0.93-1.34,1.29-2.08c0.41-0.88,0.93-1.68,1.58-2.4c1.05-0.88,2.15-1.33,3.3-1.33c1.1,0,2.05,0.42,2.87,1.25
			c0.07,0.07,0.13,0.14,0.18,0.21C95.36,82.14,95.49,83.25,95.35,84.39z"/>
		<path class="st1" d="M118.17,20.98c-0.29-0.64-0.76-1.12-1.41-1.42c-0.66-0.3-1.44-0.45-2.35-0.45c-0.43,0-0.85,0.01-1.25,0.04
			c-2.2,0.14-4.37,0.21-6.52,0.21l-24.76,0.04c-1.82,0-3.74,0.49-5.77,1.47c-2.1,1.17-3.67,2.69-4.71,4.57
			c-1.04,1.88-1.69,3.92-1.95,6.14c-0.17,1.39,0.02,2.73,0.57,4.05l1.93,4.33c0.38,0.91,0.94,1.65,1.68,2.24
			c0.74,0.59,1.66,0.88,2.76,0.88c1.38,0,2.68-0.5,3.89-1.49c1.21-0.99,1.93-2.23,2.17-3.71c0.07-0.79-0.04-1.43-0.32-1.93
			l-1.15-2.72c0.24-0.36,0.64-0.68,1.2-0.97c0.56-0.29,1.06-0.45,1.49-0.5l-3.94,31.99c-0.12,0.67-0.44,1.1-0.95,1.31
			c-0.51,0.2-1.06,0.3-1.63,0.3c-0.64,0-1.2,0.21-1.67,0.64c-0.47,0.43-0.84,0.95-1.11,1.56c-0.27,0.61-0.45,1.19-0.52,1.74
			c-0.05,0.36-0.05,0.76,0,1.22c0.05,0.45,0.15,0.9,0.32,1.33l1.93,4.33c0.17,0.41,0.41,0.74,0.74,1c0.32,0.26,0.73,0.39,1.24,0.39
			h31.1c0.69,0,1.3-0.19,1.83-0.56c0.52-0.37,0.98-0.84,1.36-1.42c1.34-1.91,2.59-3.89,3.76-5.95c0.62-1.1,1.03-2.26,1.22-3.48
			c0.07-0.5,0-0.96-0.21-1.36l-1.9-4.37c-0.45-0.93-1.22-1.4-2.29-1.4c-0.62,0-1.17,0.2-1.65,0.59c-0.48,0.39-0.91,0.83-1.29,1.31
			c-0.07,0.07-0.14,0.14-0.21,0.21c-0.05,0.1-0.11,0.18-0.18,0.25l-0.29,0.32c-1.07,1.24-2.33,2.17-3.76,2.79
			c-1,0.38-2.3,0.62-3.89,0.7c-1.59,0.08-2.9,0.13-3.92,0.13c-1.05,0-2.07-0.04-3.05-0.11c-0.1-0.02-0.18-0.04-0.25-0.04l1.33-10.71
			c0.57-0.05,1.15-0.07,1.72-0.07c1.12,0,2.1,0.16,2.94,0.47c0.84,0.31,1.56,0.91,2.19,1.79l0.29,0.39l0.36,0.39
			c0.21,0.26,0.5,0.47,0.84,0.63c0.35,0.16,0.81,0.23,1.38,0.23c1.36,0,2.48-0.68,3.37-2.04c0.12-0.29,0.26-0.83,0.43-1.63
			c0.17-0.8,0.31-1.62,0.43-2.47c0.12-0.85,0.2-1.46,0.25-1.84l0.21-1.76c0.02-0.29,0.07-0.58,0.14-0.9
			c0.05-0.33,0.09-0.68,0.14-1.04c0.19-1.07,0.13-2.1-0.18-3.08l-1.9-4.37c-0.48-1-1.28-1.5-2.4-1.5c-0.79,0-1.41,0.22-1.88,0.66
			c-0.46,0.44-0.84,1.02-1.13,1.74l-0.29,0.75l-0.43,0.61c-0.26,0.29-0.61,0.51-1.04,0.68c-0.5,0.17-1.11,0.28-1.83,0.34
			c-0.72,0.06-1.43,0.1-2.15,0.13l0.79-6.7c0.07-0.84,0.25-1.58,0.52-2.22c0.27-0.64,0.83-1.19,1.67-1.65
			c0.98-0.45,2.04-0.68,3.19-0.68c1.5,0,2.93,0.11,4.28,0.32c1.35,0.21,2.57,0.66,3.67,1.34c1.1,0.68,2.02,1.7,2.76,3.06
			c0.29,0.57,0.67,1.11,1.16,1.61c0.49,0.5,1.15,0.75,1.99,0.75c1.38,0,2.26-0.8,2.62-2.4c0.07-0.76,0.04-1.49-0.11-2.19
			c-0.07-0.53-0.1-1.12-0.09-1.79c0.01-0.67,0.05-1.3,0.12-1.9c0.07-0.48,0.15-0.93,0.25-1.36c0.09-0.43,0.17-0.86,0.21-1.29
			c0.12-0.91,0.05-1.65-0.21-2.22L118.17,20.98z M117.77,24.1c-0.02,0.05-0.04,0.11-0.05,0.18c-0.01,0.07-0.02,0.13-0.02,0.18
			c-0.1,0.45-0.17,0.9-0.21,1.33c-0.17,1.31-0.18,2.62-0.04,3.9c0.02,0.02,0.04,0.05,0.04,0.07c0.09,0.62,0.12,1.23,0.07,1.83
			c-0.07,0.57-0.3,1.09-0.68,1.54c-0.45,0.38-0.96,0.57-1.5,0.57c-0.36,0-0.72-0.08-1.07-0.25c-0.77-0.48-1.33-1.12-1.68-1.93
			c-1.2-2.08-2.74-3.43-4.62-4.05c-1.89-0.62-4-0.92-6.34-0.9c-1.7,0-3.13,0.41-4.3,1.22c-1,0.98-1.55,2.17-1.65,3.58
			c-0.02,0.31-0.05,0.61-0.07,0.9l-1.33,10.78h0.07c0.48,0.02,0.94,0.04,1.4,0.04c1.36,0,2.71-0.07,4.05-0.21
			c0.86-0.07,1.6-0.29,2.22-0.66c0.62-0.37,1.06-1,1.33-1.88c0.19-0.57,0.48-1.07,0.86-1.5c0.52-0.45,1.1-0.68,1.72-0.68
			c0.17,0,0.33,0.01,0.5,0.04c1.12,0.31,1.71,1.06,1.76,2.26c0.02,0.41-0.07,1.55-0.29,3.44c-0.1,0.64-0.19,1.36-0.29,2.15
			c-0.43,3.2-0.79,5.12-1.07,5.77c-0.5,0.84-1.22,1.4-2.15,1.68c-0.31,0.07-0.6,0.11-0.86,0.11c-0.62,0-1.18-0.19-1.68-0.57
			c-0.36-0.29-0.66-0.62-0.9-1c-0.14-0.26-0.32-0.5-0.54-0.72c-0.62-0.57-1.35-0.99-2.19-1.24c-0.84-0.25-1.73-0.38-2.69-0.38
			c-0.07,0-0.14,0-0.21,0c-0.6,0-1.22,0.04-1.86,0.11l-1.58,12.97c-0.12,1,0.08,1.72,0.61,2.15c0.52,0.43,1.22,0.69,2.08,0.77
			c0.86,0.08,1.72,0.13,2.58,0.13c0.24,0,0.47,0,0.68,0c3.84,0,6.46-0.29,7.85-0.86c1.43-0.57,2.75-1.55,3.94-2.94l0.39-0.43
			c0.36-0.55,0.78-1.03,1.27-1.45c0.49-0.42,1.03-0.63,1.63-0.63c0.24,0,0.49,0.05,0.75,0.14c1.05,0.5,1.48,1.31,1.29,2.44
			c-0.14,0.98-0.54,2.04-1.18,3.17c-0.64,1.13-1.3,2.22-1.97,3.24c-0.02,0.02-0.06,0.06-0.11,0.11c-0.17,0.26-0.32,0.51-0.47,0.75
			c-0.5,0.76-0.88,1.34-1.15,1.72c-0.36,0.5-0.77,0.92-1.22,1.25c-0.45,0.33-0.98,0.5-1.58,0.5h-31.1c-0.64,0-1.15-0.34-1.52-1.02
			c-0.37-0.68-0.51-1.51-0.41-2.49c0.14-0.98,0.48-1.81,1.02-2.49c0.54-0.68,1.13-1.02,1.77-1.02c0.67,0,1.31-0.14,1.93-0.41
			c0.62-0.27,1-0.82,1.15-1.63l4.16-33.75c0.09-0.84-0.06-1.55-0.47-2.13C83.44,27.29,82.82,27,81.98,27c-0.53,0-1.2,0.21-2.02,0.64
			c-0.82,0.43-1.32,0.97-1.49,1.61c0,0.14,0.01,0.27,0.04,0.38c0.02,0.11,0.08,0.24,0.18,0.39c0.09,0.16,0.24,0.35,0.43,0.59
			c0.14,0.21,0.32,0.48,0.54,0.79c0.41,0.6,0.56,1.3,0.47,2.11c-0.02,0.21-0.07,0.44-0.14,0.68c-0.34,1.12-1.03,2.09-2.08,2.9
			c-1.05,0.81-2.17,1.22-3.37,1.22c-1.12,0-2.05-0.35-2.78-1.04c-0.73-0.69-1.26-1.54-1.58-2.54c-0.32-1-0.43-2.03-0.31-3.08v-0.07
			c0.45-3.15,1.37-5.56,2.74-7.22c1.37-1.66,2.83-2.81,4.37-3.44c1.54-0.63,2.81-0.97,3.81-1.02h0.18c0.17-0.02,0.31-0.04,0.43-0.04
			c0.21,0,0.36-0.01,0.43-0.04l24.76-0.04c0.24,0,0.48,0,0.72,0c0.26,0,0.51,0,0.75,0c1.72,0,3.4-0.07,5.05-0.21
			c0.31-0.02,0.61-0.04,0.9-0.04c0.12,0,0.25,0,0.39,0c0.79,0,1.5,0.15,2.13,0.45c0.63,0.3,1.08,0.78,1.34,1.45
			c0.14,0.55,0.19,1.13,0.14,1.76C117.98,23.49,117.89,23.79,117.77,24.1z"/>
	</g>
	<g class="st3">
		<path class="st4" d="M112.26,13.8c-0.63-0.3-1.34-0.45-2.13-0.45c-0.14,0-0.28,0-0.39,0c-0.29,0-0.59,0.01-0.9,0.04
			c-1.65,0.14-3.33,0.21-5.05,0.21c-0.24,0-0.49,0-0.75,0c-0.24,0-0.48,0-0.72,0l-24.76,0.04c-0.07,0.02-0.21,0.04-0.43,0.04
			c-0.12,0-0.26,0.01-0.43,0.04h-0.18c-1,0.05-2.28,0.39-3.81,1.02c-1.54,0.63-3,1.78-4.37,3.44c-1.37,1.66-2.29,4.07-2.74,7.22
			v0.07c-0.12,1.05-0.02,2.08,0.31,3.08c0.32,1,0.85,1.85,1.58,2.54c0.73,0.69,1.65,1.04,2.78,1.04c1.19,0,2.32-0.41,3.37-1.22
			c1.05-0.81,1.74-1.78,2.08-2.9c0.07-0.24,0.12-0.47,0.14-0.68c0.09-0.81-0.06-1.52-0.47-2.11c-0.21-0.31-0.39-0.57-0.54-0.79
			c-0.19-0.24-0.34-0.44-0.43-0.59c-0.1-0.15-0.16-0.29-0.18-0.39c-0.02-0.11-0.04-0.23-0.04-0.38c0.17-0.64,0.66-1.18,1.49-1.61
			c0.83-0.43,1.5-0.64,2.02-0.64c0.84,0,1.46,0.29,1.86,0.88c0.41,0.59,0.56,1.3,0.47,2.13l-4.16,33.75
			c-0.14,0.81-0.53,1.36-1.15,1.63c-0.62,0.28-1.27,0.41-1.93,0.41c-0.64,0-1.24,0.34-1.77,1.02c-0.54,0.68-0.88,1.51-1.02,2.49
			c-0.1,0.98,0.04,1.81,0.41,2.49c0.37,0.68,0.88,1.02,1.52,1.02h31.1c0.6,0,1.12-0.17,1.58-0.5c0.45-0.33,0.86-0.75,1.22-1.25
			c0.26-0.38,0.64-0.96,1.15-1.72c0.14-0.24,0.3-0.49,0.47-0.75c0.05-0.05,0.08-0.08,0.11-0.11c0.67-1.03,1.33-2.11,1.97-3.24
			c0.64-1.13,1.04-2.19,1.18-3.17c0.19-1.12-0.24-1.93-1.29-2.44c-0.26-0.1-0.51-0.14-0.75-0.14c-0.6,0-1.14,0.21-1.63,0.63
			c-0.49,0.42-0.91,0.9-1.27,1.45l-0.39,0.43c-1.2,1.39-2.51,2.36-3.94,2.94c-1.39,0.57-4,0.86-7.85,0.86c-0.21,0-0.44,0-0.68,0
			c-0.86,0-1.72-0.04-2.58-0.13c-0.86-0.08-1.55-0.34-2.08-0.77c-0.53-0.43-0.73-1.15-0.61-2.15l1.58-12.97
			c0.64-0.07,1.27-0.11,1.86-0.11c0.07,0,0.14,0,0.21,0c0.95,0,1.85,0.13,2.69,0.38c0.84,0.25,1.56,0.66,2.19,1.24
			c0.21,0.21,0.39,0.45,0.54,0.72c0.24,0.38,0.54,0.72,0.9,1c0.5,0.38,1.06,0.57,1.68,0.57c0.26,0,0.55-0.04,0.86-0.11
			c0.93-0.29,1.65-0.85,2.15-1.68c0.29-0.64,0.64-2.57,1.07-5.77c0.09-0.79,0.19-1.5,0.29-2.15c0.21-1.89,0.31-3.03,0.29-3.44
			c-0.05-1.19-0.63-1.95-1.76-2.26c-0.17-0.02-0.34-0.04-0.5-0.04c-0.62,0-1.2,0.23-1.72,0.68c-0.38,0.43-0.67,0.93-0.86,1.5
			c-0.26,0.88-0.71,1.51-1.33,1.88c-0.62,0.37-1.36,0.59-2.22,0.66c-1.34,0.14-2.69,0.21-4.05,0.21c-0.45,0-0.92-0.01-1.4-0.04
			h-0.07l1.33-10.78c0.02-0.29,0.05-0.58,0.07-0.9c0.09-1.41,0.64-2.6,1.65-3.58c1.17-0.81,2.6-1.22,4.3-1.22
			c2.34-0.02,4.45,0.28,6.34,0.9c1.89,0.62,3.43,1.97,4.62,4.05c0.36,0.81,0.92,1.46,1.68,1.93c0.36,0.17,0.72,0.25,1.07,0.25
			c0.55,0,1.05-0.19,1.5-0.57c0.38-0.45,0.61-0.97,0.68-1.54c0.05-0.6,0.02-1.21-0.07-1.83c0-0.02-0.01-0.05-0.04-0.07
			c-0.14-1.29-0.13-2.59,0.04-3.9c0.05-0.43,0.12-0.87,0.21-1.33c0-0.05,0.01-0.11,0.02-0.18c0.01-0.07,0.03-0.13,0.05-0.18
			c0.12-0.31,0.2-0.61,0.25-0.9c0.05-0.62,0-1.21-0.14-1.76C113.34,14.59,112.89,14.1,112.26,13.8z"/>
		<path class="st4" d="M90.5,74.65c-0.81-0.84-1.77-1.25-2.87-1.25c-1.15,0-2.25,0.44-3.3,1.33c-0.64,0.72-1.17,1.52-1.58,2.4
			c-0.36,0.74-0.79,1.43-1.29,2.08c-0.64,0.84-1.36,1.43-2.13,1.77c-0.78,0.35-1.82,0.52-3.13,0.52h-0.04c-0.5,0-1.3-0.08-2.38-0.25
			c-1.09-0.17-2.4-0.68-3.92-1.54c-1.53-0.86-3.21-2.27-5.03-4.23c-1.83-1.96-3.74-4.69-5.75-8.2c-2.17-4.04-3.94-7.92-5.3-11.64
			c-0.72-1.91-1.4-3.81-2.06-5.7c-0.66-1.89-1.17-3.46-1.52-4.73c-0.62-2.27-0.96-3.48-1-3.62v-0.04c0.02,0,0.05-0.01,0.07-0.04
			c0.12-0.05,0.43-0.18,0.93-0.39c0.95-0.38,2.16-1.09,3.6-2.13c1.44-1.04,2.8-2.47,4.07-4.3c1.27-1.83,2.1-4.11,2.51-6.86
			c0.29-2.63-0.01-5-0.88-7.13c-0.87-2.13-2.2-3.83-3.99-5.11c-1.79-1.28-3.87-1.92-6.23-1.92h-24c-0.07,0.02-0.2,0.04-0.39,0.04
			c-0.12,0-0.26,0.01-0.43,0.04h-0.18c-1.15,0.05-2.59,0.48-4.33,1.29c-1.74,0.81-3.34,2.33-4.8,4.55
			c-1.03,1.89-1.63,3.86-1.79,5.91v0.04c-0.12,1.05-0.02,2.08,0.29,3.1c0.31,1.02,0.83,1.87,1.56,2.56
			c0.73,0.69,1.67,1.04,2.81,1.04c1.19,0,2.35-0.32,3.46-0.97c1.11-0.64,1.87-1.56,2.28-2.76c0.05-0.24,0.09-0.48,0.14-0.72
			c0.09-0.88-0.1-1.67-0.57-2.36c-0.31-0.43-0.56-0.78-0.75-1.04c-0.17-0.24-0.3-0.42-0.39-0.56c-0.1-0.13-0.16-0.25-0.18-0.36
			c-0.02-0.11-0.04-0.22-0.04-0.34V23.1c0.05-0.24,0.15-0.47,0.32-0.7c0.17-0.23,0.36-0.41,0.57-0.56c1.24-0.76,2.56-1.15,3.94-1.15
			h1.36l-4.44,36.22c-0.12,1.1-0.4,1.83-0.84,2.19c-0.44,0.36-1.21,0.54-2.31,0.54c-0.64,0-1.24,0.34-1.77,1.02
			c-0.54,0.68-0.88,1.51-1.02,2.49c-0.1,0.98,0.04,1.81,0.41,2.49c0.37,0.68,0.88,1.02,1.52,1.02h17.27c0.64,0,1.24-0.34,1.77-1.02
			c0.54-0.68,0.88-1.51,1.02-2.49c0.09-0.98-0.04-1.81-0.41-2.49c-0.37-0.68-0.88-1.02-1.52-1.02h-0.29c-0.48,0-0.9-0.01-1.27-0.04
			c-0.37-0.02-0.63-0.1-0.77-0.21c-0.21-0.21-0.31-0.49-0.29-0.82c-0.02-0.33,0.23-2.77,0.75-7.31c0.41-3.65,0.64-5.91,0.72-6.77
			c0.02-0.21,0.04-0.33,0.04-0.36c0.02-0.1,0.06-0.18,0.11-0.25c0.05-0.07,0.11-0.11,0.18-0.11c0.12,0,0.24,0.14,0.36,0.43
			c1.38,5.21,3.08,10.52,5.09,15.94c2.01,5.42,4.45,10.35,7.34,14.8c1.46,2.24,3.34,4.35,5.66,6.32c2.32,1.97,4.97,3.58,7.95,4.84
			c2.98,1.25,6.22,1.88,9.71,1.88c1.86,0,3.83-0.21,5.91-0.64c2.08-0.43,4.05-1.13,5.93-2.1c1.88-0.97,3.48-2.25,4.82-3.85
			c0.76-1,1.21-2.07,1.33-3.19c0.14-1.15,0.01-2.26-0.39-3.33C90.63,74.8,90.57,74.72,90.5,74.65z M48.22,28.26
			c-0.21,1.72-1.06,3.15-2.52,4.3c-1.47,1.15-3.52,1.72-6.14,1.72c-0.41,0-0.74-0.07-1-0.21c-0.26-0.14-0.39-0.32-0.39-0.54
			l1.36-10.86c0.02-0.21,0.18-0.39,0.48-0.54c0.3-0.14,0.65-0.21,1.06-0.21c1.77,0,3.2,0.3,4.3,0.9c1.1,0.6,1.88,1.37,2.35,2.33
			C48.17,26.1,48.34,27.14,48.22,28.26z"/>
		<path class="st5" d="M45.36,22.81c-1.1-0.6-2.53-0.9-4.3-0.9c-0.41,0-0.76,0.07-1.06,0.21c-0.3,0.14-0.46,0.32-0.48,0.54
			l-1.36,10.86c0,0.21,0.13,0.39,0.39,0.54c0.26,0.14,0.6,0.21,1,0.21c2.63,0,4.67-0.57,6.14-1.72c1.47-1.15,2.31-2.58,2.52-4.3
			c0.12-1.12-0.05-2.16-0.52-3.12C47.24,24.19,46.45,23.41,45.36,22.81z M47.79,28.26c-0.29,1.77-1.08,3.09-2.38,3.98
			c-1.3,0.88-2.77,1.4-4.39,1.54l0.86-6.81l0.25-0.14c0.14-0.07,0.29-0.11,0.45-0.13c0.16-0.01,0.27-0.02,0.34-0.02
			c0.88,0,1.75,0.1,2.6,0.3c0.85,0.2,1.61,0.56,2.28,1.06V28.26z"/>
		<path class="st5" d="M91.43,75.23c-0.69-1.5-1.96-2.26-3.8-2.26c-1.36,0-2.44,0.38-3.22,1.13s-1.46,1.71-2.01,2.88
			c-0.74,1.48-1.55,2.53-2.42,3.15c-0.87,0.62-2.11,0.93-3.71,0.93c-2.34,0-4.49-0.62-6.45-1.86c-1.96-1.24-3.74-2.82-5.34-4.73
			c-1.6-1.91-3.02-3.94-4.26-6.09c-1.24-2.15-2.31-4.18-3.19-6.09c-1.55-3.8-2.9-7.69-4.05-11.68l-1.4-4.51l0.64-0.25
			c0.84-0.36,1.62-0.79,2.36-1.29c0.09-0.07,0.19-0.13,0.29-0.18c4.54-2.98,7.14-7.06,7.81-12.22c0.31-2.79-0.04-5.37-1.04-7.74
			l-1.93-4.33c-0.88-2.03-2.2-3.68-3.96-4.94c-1.75-1.27-3.9-1.9-6.43-1.9h-24c-1.84,0-3.76,0.49-5.77,1.47
			c-3.32,1.91-5.41,4.71-6.27,8.38c-0.17,0.79-0.3,1.59-0.39,2.4c-0.17,1.39,0.02,2.73,0.57,4.05l1.9,4.33
			c0.41,0.91,0.98,1.65,1.72,2.24c0.74,0.59,1.66,0.88,2.76,0.88c1.43,0,2.78-0.42,4.05-1.25c1.27-0.84,2.02-2.05,2.26-3.65
			c0.07-0.76-0.01-1.41-0.25-1.93l-1.4-3.19c0.72-0.74,1.59-1.19,2.62-1.36l-3.87,31.31c-0.1,0.98-0.33,1.61-0.7,1.88
			c-0.37,0.28-1.03,0.41-1.99,0.41c-0.62,0-1.16,0.22-1.63,0.66c-0.46,0.44-0.84,0.96-1.11,1.56c-0.28,0.6-0.45,1.17-0.52,1.72
			c-0.05,0.36-0.05,0.76,0,1.22c0.05,0.45,0.15,0.9,0.32,1.33l1.93,4.33c0.17,0.41,0.41,0.74,0.73,1c0.32,0.26,0.74,0.39,1.24,0.39
			H38.8c0.62,0,1.17-0.21,1.63-0.64c0.47-0.43,0.84-0.95,1.11-1.56c0.27-0.61,0.45-1.19,0.52-1.74c0.14-0.96,0-1.86-0.43-2.72
			l-1.93-4.33c-0.17-0.31-0.39-0.59-0.68-0.84c-0.29-0.25-0.68-0.38-1.18-0.38c0.07-0.6,0.14-1.21,0.21-1.83
			c0.07-0.6,0.14-1.19,0.21-1.79l0.47-4.84c1.1,3.73,2.6,7.97,4.51,12.72c0.24,0.48,0.45,0.96,0.64,1.43l1.9,4.33
			c2.03,4.87,4.5,9.15,7.4,12.83c2.9,3.68,6.86,6.6,11.88,8.78c3.1,1.27,6.39,1.9,9.85,1.9c1.84,0,3.84-0.22,6-0.66
			c2.16-0.44,4.22-1.16,6.18-2.15c1.96-0.99,3.59-2.31,4.91-3.96c0.91-1.19,1.44-2.48,1.61-3.87c0.12-0.96,0.02-1.79-0.29-2.51
			L91.43,75.23z M91.07,78.2c-0.12,1.12-0.56,2.19-1.33,3.19c-1.34,1.6-2.94,2.88-4.82,3.85c-1.87,0.97-3.85,1.67-5.93,2.1
			c-2.08,0.43-4.05,0.64-5.91,0.64c-3.49,0-6.72-0.63-9.71-1.88c-2.99-1.25-5.64-2.87-7.95-4.84c-2.32-1.97-4.2-4.08-5.66-6.32
			c-2.89-4.44-5.34-9.37-7.34-14.8c-2.01-5.42-3.7-10.74-5.09-15.94c-0.12-0.29-0.24-0.43-0.36-0.43c-0.07,0-0.13,0.04-0.18,0.11
			c-0.05,0.07-0.08,0.16-0.11,0.25c0,0.02-0.01,0.14-0.04,0.36c-0.07,0.86-0.31,3.12-0.72,6.77c-0.53,4.54-0.78,6.97-0.75,7.31
			c-0.02,0.33,0.07,0.61,0.29,0.82c0.14,0.12,0.4,0.19,0.77,0.21c0.37,0.02,0.79,0.04,1.27,0.04h0.29c0.64,0,1.15,0.34,1.52,1.02
			c0.37,0.68,0.51,1.51,0.41,2.49c-0.14,0.98-0.48,1.81-1.02,2.49c-0.54,0.68-1.13,1.02-1.77,1.02H19.67
			c-0.64,0-1.15-0.34-1.52-1.02c-0.37-0.68-0.51-1.51-0.41-2.49c0.14-0.98,0.48-1.81,1.02-2.49c0.54-0.68,1.13-1.02,1.77-1.02
			c1.1,0,1.87-0.18,2.31-0.54c0.44-0.36,0.72-1.09,0.84-2.19l4.44-36.22h-1.36c-1.39,0-2.7,0.38-3.94,1.15
			c-0.21,0.14-0.41,0.33-0.57,0.56c-0.17,0.23-0.28,0.46-0.32,0.7v0.04c0,0.12,0.01,0.23,0.04,0.34c0.02,0.11,0.08,0.23,0.18,0.36
			c0.09,0.13,0.23,0.32,0.39,0.56c0.19,0.26,0.44,0.61,0.75,1.04c0.48,0.69,0.67,1.48,0.57,2.36c-0.05,0.24-0.1,0.48-0.14,0.72
			c-0.41,1.19-1.16,2.11-2.28,2.76c-1.11,0.64-2.26,0.97-3.46,0.97c-1.15,0-2.08-0.35-2.81-1.04c-0.73-0.69-1.25-1.55-1.56-2.56
			c-0.31-1.01-0.41-2.05-0.29-3.1V25.5c0.17-2.05,0.76-4.02,1.79-5.91c1.46-2.22,3.06-3.74,4.8-4.55c1.74-0.81,3.19-1.24,4.33-1.29
			h0.18c0.17-0.02,0.31-0.04,0.43-0.04c0.19,0,0.32-0.01,0.39-0.04h24c2.36,0,4.44,0.64,6.23,1.92c1.79,1.28,3.12,2.98,3.99,5.11
			c0.87,2.13,1.17,4.5,0.88,7.13c-0.41,2.75-1.24,5.03-2.51,6.86c-1.27,1.83-2.62,3.26-4.07,4.3c-1.45,1.04-2.65,1.75-3.6,2.13
			c-0.5,0.21-0.81,0.35-0.93,0.39c-0.02,0.02-0.05,0.04-0.07,0.04v0.04c0.05,0.14,0.38,1.35,1,3.62c0.36,1.27,0.87,2.84,1.52,4.73
			c0.66,1.89,1.34,3.79,2.06,5.7c1.36,3.73,3.13,7.61,5.3,11.64c2.01,3.51,3.92,6.25,5.75,8.2c1.83,1.96,3.5,3.37,5.03,4.23
			c1.53,0.86,2.84,1.37,3.92,1.54c1.09,0.17,1.88,0.25,2.38,0.25h0.04c1.31,0,2.36-0.17,3.13-0.52c0.78-0.35,1.49-0.94,2.13-1.77
			c0.5-0.64,0.93-1.34,1.29-2.08c0.41-0.88,0.93-1.68,1.58-2.4c1.05-0.88,2.15-1.33,3.3-1.33c1.1,0,2.05,0.42,2.87,1.25
			c0.07,0.07,0.13,0.14,0.18,0.21C91.08,75.94,91.21,77.05,91.07,78.2z"/>
		<path class="st5" d="M113.89,14.79c-0.29-0.64-0.76-1.12-1.41-1.42c-0.66-0.3-1.44-0.45-2.35-0.45c-0.43,0-0.85,0.01-1.25,0.04
			c-2.2,0.14-4.37,0.21-6.52,0.21L77.6,13.21c-1.82,0-3.74,0.49-5.77,1.47c-2.1,1.17-3.67,2.69-4.71,4.57
			c-1.04,1.88-1.69,3.92-1.95,6.14c-0.17,1.39,0.02,2.73,0.57,4.05l1.93,4.33c0.38,0.91,0.94,1.65,1.68,2.24
			c0.74,0.59,1.66,0.88,2.76,0.88c1.38,0,2.68-0.5,3.89-1.49c1.21-0.99,1.93-2.23,2.17-3.71c0.07-0.79-0.04-1.43-0.32-1.93
			l-1.15-2.72c0.24-0.36,0.64-0.68,1.2-0.97c0.56-0.29,1.06-0.45,1.49-0.5l-3.94,31.99c-0.12,0.67-0.44,1.1-0.95,1.31
			c-0.51,0.2-1.06,0.3-1.63,0.3c-0.64,0-1.2,0.21-1.67,0.64c-0.47,0.43-0.84,0.95-1.11,1.56c-0.27,0.61-0.45,1.19-0.52,1.74
			c-0.05,0.36-0.05,0.76,0,1.22c0.05,0.45,0.15,0.9,0.32,1.33L71.83,70c0.17,0.41,0.41,0.74,0.74,1c0.32,0.26,0.73,0.39,1.24,0.39
			h31.1c0.69,0,1.3-0.19,1.83-0.56c0.52-0.37,0.98-0.84,1.36-1.42c1.34-1.91,2.59-3.89,3.76-5.95c0.62-1.1,1.03-2.26,1.22-3.48
			c0.07-0.5,0-0.96-0.21-1.36l-1.9-4.37c-0.45-0.93-1.22-1.4-2.29-1.4c-0.62,0-1.17,0.2-1.65,0.59c-0.48,0.39-0.91,0.83-1.29,1.31
			c-0.07,0.07-0.14,0.14-0.21,0.21c-0.05,0.1-0.11,0.18-0.18,0.25l-0.29,0.32c-1.07,1.24-2.33,2.17-3.76,2.79
			c-1,0.38-2.3,0.62-3.89,0.7c-1.59,0.08-2.9,0.13-3.92,0.13c-1.05,0-2.07-0.04-3.05-0.11c-0.1-0.02-0.18-0.04-0.25-0.04l1.33-10.71
			c0.57-0.05,1.15-0.07,1.72-0.07c1.12,0,2.1,0.16,2.94,0.47c0.84,0.31,1.56,0.91,2.19,1.79l0.29,0.39l0.36,0.39
			c0.21,0.26,0.5,0.47,0.84,0.63c0.35,0.16,0.81,0.23,1.38,0.23c1.36,0,2.48-0.68,3.37-2.04c0.12-0.29,0.26-0.83,0.43-1.63
			c0.17-0.8,0.31-1.62,0.43-2.47c0.12-0.85,0.2-1.46,0.25-1.85l0.21-1.76c0.02-0.29,0.07-0.58,0.14-0.9
			c0.05-0.33,0.09-0.68,0.14-1.04c0.19-1.07,0.13-2.1-0.18-3.08l-1.9-4.37c-0.48-1-1.28-1.5-2.4-1.5c-0.79,0-1.41,0.22-1.88,0.66
			c-0.46,0.44-0.84,1.02-1.13,1.74l-0.29,0.75l-0.43,0.61c-0.26,0.29-0.61,0.51-1.04,0.68c-0.5,0.17-1.11,0.28-1.83,0.34
			c-0.72,0.06-1.43,0.1-2.15,0.13l0.79-6.7c0.07-0.84,0.25-1.58,0.52-2.22c0.27-0.64,0.83-1.19,1.67-1.65
			c0.98-0.45,2.04-0.68,3.19-0.68c1.5,0,2.93,0.11,4.28,0.32c1.35,0.21,2.57,0.66,3.67,1.34c1.1,0.68,2.02,1.7,2.76,3.06
			c0.29,0.57,0.67,1.11,1.16,1.61c0.49,0.5,1.15,0.75,1.99,0.75c1.38,0,2.26-0.8,2.62-2.4c0.07-0.76,0.04-1.49-0.11-2.19
			c-0.07-0.53-0.1-1.12-0.09-1.79c0.01-0.67,0.05-1.3,0.12-1.9c0.07-0.48,0.15-0.93,0.25-1.36c0.09-0.43,0.17-0.86,0.21-1.29
			c0.12-0.91,0.05-1.65-0.21-2.22L113.89,14.79z M113.5,17.91c-0.02,0.05-0.04,0.11-0.05,0.18c-0.01,0.07-0.02,0.13-0.02,0.18
			c-0.1,0.45-0.17,0.9-0.21,1.33c-0.17,1.31-0.18,2.62-0.04,3.9c0.02,0.02,0.04,0.05,0.04,0.07c0.09,0.62,0.12,1.23,0.07,1.83
			c-0.07,0.57-0.3,1.09-0.68,1.54c-0.45,0.38-0.96,0.57-1.5,0.57c-0.36,0-0.72-0.08-1.07-0.25c-0.77-0.48-1.33-1.12-1.68-1.93
			c-1.2-2.08-2.74-3.43-4.62-4.05c-1.89-0.62-4-0.92-6.34-0.9c-1.7,0-3.13,0.41-4.3,1.22c-1,0.98-1.55,2.17-1.65,3.58
			c-0.02,0.31-0.05,0.61-0.07,0.9l-1.33,10.78h0.07c0.48,0.02,0.94,0.04,1.4,0.04c1.36,0,2.71-0.07,4.05-0.21
			c0.86-0.07,1.6-0.29,2.22-0.66c0.62-0.37,1.06-1,1.33-1.88c0.19-0.57,0.48-1.07,0.86-1.5c0.52-0.45,1.1-0.68,1.72-0.68
			c0.17,0,0.33,0.01,0.5,0.04c1.12,0.31,1.71,1.06,1.76,2.26c0.02,0.41-0.07,1.55-0.29,3.44c-0.1,0.64-0.19,1.36-0.29,2.15
			c-0.43,3.2-0.79,5.12-1.07,5.77c-0.5,0.84-1.22,1.4-2.15,1.68c-0.31,0.07-0.6,0.11-0.86,0.11c-0.62,0-1.18-0.19-1.68-0.57
			c-0.36-0.29-0.66-0.62-0.9-1c-0.14-0.26-0.32-0.5-0.54-0.72c-0.62-0.57-1.35-0.99-2.19-1.24c-0.84-0.25-1.73-0.38-2.69-0.38
			c-0.07,0-0.14,0-0.21,0c-0.6,0-1.22,0.04-1.86,0.11l-1.58,12.97c-0.12,1,0.08,1.72,0.61,2.15c0.52,0.43,1.22,0.69,2.08,0.77
			c0.86,0.08,1.72,0.13,2.58,0.13c0.24,0,0.47,0,0.68,0c3.84,0,6.46-0.29,7.85-0.86c1.43-0.57,2.75-1.55,3.94-2.94l0.39-0.43
			c0.36-0.55,0.78-1.03,1.27-1.45c0.49-0.42,1.03-0.63,1.63-0.63c0.24,0,0.49,0.05,0.75,0.14c1.05,0.5,1.48,1.31,1.29,2.44
			c-0.14,0.98-0.54,2.04-1.18,3.17c-0.64,1.13-1.3,2.22-1.97,3.24c-0.02,0.02-0.06,0.06-0.11,0.11c-0.17,0.26-0.32,0.51-0.47,0.75
			c-0.5,0.76-0.88,1.34-1.15,1.72c-0.36,0.5-0.77,0.92-1.22,1.25c-0.45,0.33-0.98,0.5-1.58,0.5h-31.1c-0.64,0-1.15-0.34-1.52-1.02
			c-0.37-0.68-0.51-1.51-0.41-2.49c0.14-0.98,0.48-1.81,1.02-2.49c0.54-0.68,1.13-1.02,1.77-1.02c0.67,0,1.31-0.14,1.93-0.41
			c0.62-0.27,1-0.82,1.15-1.63l4.16-33.75c0.09-0.84-0.06-1.55-0.47-2.13c-0.41-0.58-1.03-0.88-1.86-0.88
			c-0.53,0-1.2,0.21-2.02,0.64c-0.82,0.43-1.32,0.97-1.49,1.61c0,0.14,0.01,0.27,0.04,0.38c0.02,0.11,0.08,0.24,0.18,0.39
			c0.09,0.16,0.24,0.35,0.43,0.59c0.14,0.21,0.32,0.48,0.54,0.79c0.41,0.6,0.56,1.3,0.47,2.11c-0.02,0.21-0.07,0.44-0.14,0.68
			c-0.34,1.12-1.03,2.09-2.08,2.9c-1.05,0.81-2.17,1.22-3.37,1.22c-1.12,0-2.05-0.35-2.78-1.04c-0.73-0.69-1.26-1.54-1.58-2.54
			c-0.32-1-0.43-2.03-0.31-3.08v-0.07c0.45-3.15,1.37-5.56,2.74-7.22c1.37-1.66,2.83-2.81,4.37-3.44c1.54-0.63,2.81-0.97,3.81-1.02
			h0.18c0.17-0.02,0.31-0.04,0.43-0.04c0.21,0,0.36-0.01,0.43-0.04l24.76-0.04c0.24,0,0.48,0,0.72,0c0.26,0,0.51,0,0.75,0
			c1.72,0,3.4-0.07,5.05-0.21c0.31-0.02,0.61-0.04,0.9-0.04c0.12,0,0.25,0,0.39,0c0.79,0,1.5,0.15,2.13,0.45
			c0.63,0.3,1.08,0.78,1.34,1.45c0.14,0.55,0.19,1.13,0.14,1.76C113.7,17.3,113.62,17.6,113.5,17.91z"/>
	</g>
	<g class="st3">
		<path class="st6" d="M108.6,7.25c-0.63-0.3-1.34-0.45-2.13-0.45c-0.14,0-0.28,0-0.39,0c-0.29,0-0.59,0.01-0.9,0.04
			c-1.65,0.14-3.33,0.21-5.05,0.21c-0.24,0-0.49,0-0.75,0c-0.24,0-0.48,0-0.72,0L73.9,7.09c-0.07,0.02-0.21,0.04-0.43,0.04
			c-0.12,0-0.26,0.01-0.43,0.04h-0.18c-1,0.05-2.28,0.39-3.81,1.02c-1.54,0.63-3,1.78-4.37,3.44c-1.37,1.66-2.29,4.07-2.74,7.22
			v0.07c-0.12,1.05-0.02,2.08,0.31,3.08c0.32,1,0.85,1.85,1.58,2.54c0.73,0.69,1.65,1.04,2.78,1.04c1.19,0,2.32-0.41,3.37-1.22
			c1.05-0.81,1.74-1.78,2.08-2.9c0.07-0.24,0.12-0.47,0.14-0.68c0.09-0.81-0.06-1.52-0.47-2.11c-0.21-0.31-0.39-0.57-0.54-0.79
			c-0.19-0.24-0.34-0.44-0.43-0.59c-0.1-0.15-0.16-0.29-0.18-0.39c-0.02-0.11-0.04-0.23-0.04-0.38c0.17-0.64,0.66-1.18,1.49-1.61
			c0.83-0.43,1.5-0.64,2.02-0.64c0.84,0,1.46,0.29,1.86,0.88c0.41,0.59,0.56,1.3,0.47,2.13l-4.16,33.75
			c-0.14,0.81-0.53,1.36-1.15,1.63c-0.62,0.28-1.27,0.41-1.93,0.41c-0.64,0-1.24,0.34-1.77,1.02c-0.54,0.68-0.88,1.51-1.02,2.49
			c-0.1,0.98,0.04,1.81,0.41,2.49c0.37,0.68,0.88,1.02,1.52,1.02h31.1c0.6,0,1.12-0.17,1.58-0.5c0.45-0.33,0.86-0.75,1.22-1.25
			c0.26-0.38,0.64-0.96,1.15-1.72c0.14-0.24,0.3-0.49,0.47-0.75c0.05-0.05,0.08-0.08,0.11-0.11c0.67-1.03,1.33-2.11,1.97-3.24
			c0.64-1.13,1.04-2.19,1.18-3.17c0.19-1.12-0.24-1.93-1.29-2.44c-0.26-0.1-0.51-0.14-0.75-0.14c-0.6,0-1.14,0.21-1.63,0.63
			c-0.49,0.42-0.91,0.9-1.27,1.45l-0.39,0.43c-1.2,1.39-2.51,2.36-3.94,2.94c-1.39,0.57-4,0.86-7.85,0.86c-0.21,0-0.44,0-0.68,0
			c-0.86,0-1.72-0.04-2.58-0.13c-0.86-0.08-1.55-0.34-2.08-0.77c-0.53-0.43-0.73-1.15-0.61-2.15l1.58-12.97
			c0.64-0.07,1.27-0.11,1.86-0.11c0.07,0,0.14,0,0.21,0c0.95,0,1.85,0.13,2.69,0.38c0.84,0.25,1.56,0.66,2.19,1.24
			c0.21,0.21,0.39,0.45,0.54,0.72c0.24,0.38,0.54,0.72,0.9,1c0.5,0.38,1.06,0.57,1.68,0.57c0.26,0,0.55-0.04,0.86-0.11
			c0.93-0.29,1.65-0.85,2.15-1.68c0.29-0.64,0.64-2.57,1.07-5.77c0.09-0.79,0.19-1.5,0.29-2.15c0.21-1.89,0.31-3.03,0.29-3.44
			c-0.05-1.19-0.63-1.95-1.76-2.26c-0.17-0.02-0.34-0.04-0.5-0.04c-0.62,0-1.2,0.23-1.72,0.68c-0.38,0.43-0.67,0.93-0.86,1.5
			c-0.26,0.88-0.71,1.51-1.33,1.88c-0.62,0.37-1.36,0.59-2.22,0.66c-1.34,0.14-2.69,0.21-4.05,0.21c-0.45,0-0.92-0.01-1.4-0.04
			h-0.07l1.33-10.78c0.02-0.29,0.05-0.58,0.07-0.9c0.09-1.41,0.64-2.6,1.65-3.58c1.17-0.81,2.6-1.22,4.3-1.22
			c2.34-0.02,4.45,0.28,6.34,0.9c1.89,0.62,3.43,1.97,4.62,4.05c0.36,0.81,0.92,1.46,1.68,1.93c0.36,0.17,0.72,0.25,1.07,0.25
			c0.55,0,1.05-0.19,1.5-0.57c0.38-0.45,0.61-0.97,0.68-1.54c0.05-0.6,0.02-1.21-0.07-1.83c0-0.02-0.01-0.05-0.04-0.07
			c-0.14-1.29-0.13-2.59,0.04-3.9c0.05-0.43,0.12-0.87,0.21-1.33c0-0.05,0.01-0.11,0.02-0.18c0.01-0.07,0.03-0.13,0.05-0.18
			c0.12-0.31,0.2-0.61,0.25-0.9c0.05-0.62,0-1.21-0.14-1.76C109.67,8.03,109.23,7.55,108.6,7.25z"/>
		<path class="st6" d="M86.83,68.1c-0.81-0.84-1.77-1.25-2.87-1.25c-1.15,0-2.25,0.44-3.3,1.33c-0.64,0.72-1.17,1.52-1.58,2.4
			c-0.36,0.74-0.79,1.43-1.29,2.08c-0.64,0.84-1.36,1.43-2.13,1.77c-0.78,0.35-1.82,0.52-3.13,0.52H72.5c-0.5,0-1.3-0.08-2.38-0.25
			c-1.09-0.17-2.4-0.68-3.92-1.54c-1.53-0.86-3.21-2.27-5.03-4.23c-1.83-1.96-3.74-4.69-5.75-8.2c-2.17-4.04-3.94-7.92-5.3-11.64
			c-0.72-1.91-1.4-3.81-2.06-5.7c-0.66-1.89-1.17-3.46-1.52-4.73c-0.62-2.27-0.96-3.48-1-3.62V35c0.02,0,0.05-0.01,0.07-0.04
			c0.12-0.05,0.43-0.18,0.93-0.39c0.95-0.38,2.16-1.09,3.6-2.13c1.44-1.04,2.8-2.47,4.07-4.3c1.27-1.83,2.1-4.11,2.51-6.86
			c0.29-2.63-0.01-5-0.88-7.13c-0.87-2.13-2.2-3.83-3.99-5.11c-1.79-1.28-3.87-1.92-6.23-1.92h-24c-0.07,0.02-0.2,0.04-0.39,0.04
			c-0.12,0-0.26,0.01-0.43,0.04h-0.18C19.44,7.24,18,7.67,16.26,8.49c-1.74,0.81-3.34,2.33-4.8,4.55c-1.03,1.89-1.63,3.86-1.79,5.91
			v0.04c-0.12,1.05-0.02,2.08,0.29,3.1c0.31,1.02,0.83,1.87,1.56,2.56c0.73,0.69,1.67,1.04,2.81,1.04c1.19,0,2.35-0.32,3.46-0.97
			c1.11-0.64,1.87-1.56,2.28-2.76c0.05-0.24,0.09-0.48,0.14-0.72c0.09-0.88-0.1-1.67-0.57-2.36c-0.31-0.43-0.56-0.78-0.75-1.04
			c-0.17-0.24-0.3-0.42-0.39-0.56c-0.1-0.13-0.16-0.25-0.18-0.36c-0.02-0.11-0.04-0.22-0.04-0.34v-0.04
			c0.05-0.24,0.15-0.47,0.32-0.7c0.17-0.23,0.36-0.41,0.57-0.56c1.24-0.76,2.56-1.15,3.94-1.15h1.36l-4.44,36.22
			c-0.12,1.1-0.4,1.83-0.84,2.19c-0.44,0.36-1.21,0.54-2.31,0.54c-0.64,0-1.24,0.34-1.77,1.02c-0.54,0.68-0.88,1.51-1.02,2.49
			c-0.1,0.98,0.04,1.81,0.41,2.49c0.37,0.68,0.88,1.02,1.52,1.02h17.27c0.64,0,1.24-0.34,1.77-1.02c0.54-0.68,0.88-1.51,1.02-2.49
			c0.09-0.98-0.04-1.81-0.41-2.49c-0.37-0.68-0.88-1.02-1.52-1.02h-0.29c-0.48,0-0.9-0.01-1.27-0.04c-0.37-0.02-0.63-0.1-0.77-0.21
			c-0.21-0.21-0.31-0.49-0.29-0.82c-0.02-0.33,0.23-2.77,0.75-7.31c0.41-3.65,0.64-5.91,0.72-6.77c0.02-0.21,0.04-0.33,0.04-0.36
			c0.02-0.1,0.06-0.18,0.11-0.25c0.05-0.07,0.11-0.11,0.18-0.11c0.12,0,0.24,0.14,0.36,0.43c1.38,5.21,3.08,10.52,5.09,15.94
			c2.01,5.42,4.45,10.35,7.34,14.8c1.46,2.24,3.34,4.35,5.66,6.32c2.32,1.97,4.97,3.58,7.95,4.84c2.98,1.25,6.22,1.88,9.71,1.88
			c1.86,0,3.83-0.21,5.91-0.64c2.08-0.43,4.05-1.13,5.93-2.1c1.88-0.97,3.48-2.25,4.82-3.85c0.76-1,1.21-2.07,1.33-3.19
			c0.14-1.15,0.01-2.26-0.39-3.33C86.96,68.24,86.9,68.17,86.83,68.1z M44.56,21.71c-0.21,1.72-1.06,3.15-2.52,4.3
			c-1.47,1.15-3.52,1.72-6.14,1.72c-0.41,0-0.74-0.07-1-0.21c-0.26-0.14-0.39-0.32-0.39-0.54l1.36-10.86
			c0.02-0.21,0.18-0.39,0.48-0.54c0.3-0.14,0.65-0.21,1.06-0.21c1.77,0,3.2,0.3,4.3,0.9c1.1,0.6,1.88,1.37,2.35,2.33
			C44.5,19.54,44.68,20.58,44.56,21.71z"/>
		<path class="st7" d="M41.69,16.26c-1.1-0.6-2.53-0.9-4.3-0.9c-0.41,0-0.76,0.07-1.06,0.21c-0.3,0.14-0.46,0.32-0.48,0.54
			l-1.36,10.86c0,0.21,0.13,0.39,0.39,0.54c0.26,0.14,0.6,0.21,1,0.21c2.63,0,4.67-0.57,6.14-1.72c1.47-1.15,2.31-2.58,2.52-4.3
			c0.12-1.12-0.05-2.16-0.52-3.12C43.57,17.63,42.79,16.86,41.69,16.26z M44.13,21.71c-0.29,1.77-1.08,3.09-2.38,3.98
			c-1.3,0.88-2.77,1.4-4.39,1.54l0.86-6.81l0.25-0.14c0.14-0.07,0.29-0.11,0.45-0.13c0.16-0.01,0.27-0.02,0.34-0.02
			c0.88,0,1.75,0.1,2.6,0.3c0.85,0.2,1.61,0.56,2.28,1.06V21.71z"/>
		<path class="st7" d="M87.76,68.67c-0.69-1.5-1.96-2.26-3.8-2.26c-1.36,0-2.44,0.38-3.22,1.13s-1.46,1.71-2.01,2.88
			c-0.74,1.48-1.55,2.53-2.42,3.15c-0.87,0.62-2.11,0.93-3.71,0.93c-2.34,0-4.49-0.62-6.45-1.86c-1.96-1.24-3.74-2.82-5.34-4.73
			c-1.6-1.91-3.02-3.94-4.26-6.09c-1.24-2.15-2.31-4.18-3.19-6.09c-1.55-3.8-2.9-7.69-4.05-11.68l-1.4-4.51l0.64-0.25
			c0.84-0.36,1.62-0.79,2.36-1.29c0.09-0.07,0.19-0.13,0.29-0.18c4.54-2.98,7.14-7.06,7.81-12.22c0.31-2.79-0.04-5.37-1.04-7.74
			l-1.93-4.33c-0.88-2.03-2.2-3.68-3.96-4.94c-1.75-1.27-3.9-1.9-6.43-1.9h-24c-1.84,0-3.76,0.49-5.77,1.47
			c-3.32,1.91-5.41,4.71-6.27,8.38c-0.17,0.79-0.3,1.59-0.39,2.4C9.07,20.33,9.26,21.68,9.81,23l1.9,4.33
			c0.41,0.91,0.98,1.65,1.72,2.24c0.74,0.59,1.66,0.88,2.76,0.88c1.43,0,2.78-0.42,4.05-1.25c1.27-0.84,2.02-2.05,2.26-3.65
			c0.07-0.76-0.01-1.41-0.25-1.93l-1.4-3.19c0.72-0.74,1.59-1.19,2.62-1.36l-3.87,31.31c-0.1,0.98-0.33,1.61-0.7,1.88
			c-0.37,0.28-1.03,0.41-1.99,0.41c-0.62,0-1.16,0.22-1.63,0.66c-0.46,0.44-0.84,0.96-1.11,1.56c-0.28,0.6-0.45,1.17-0.52,1.72
			c-0.05,0.36-0.05,0.76,0,1.22c0.05,0.45,0.15,0.9,0.32,1.33l1.93,4.33c0.17,0.41,0.41,0.74,0.73,1c0.32,0.26,0.74,0.39,1.24,0.39
			h17.27c0.62,0,1.17-0.21,1.63-0.64c0.47-0.43,0.84-0.95,1.11-1.56c0.27-0.61,0.45-1.19,0.52-1.74c0.14-0.96,0-1.86-0.43-2.72
			l-1.93-4.33c-0.17-0.31-0.39-0.59-0.68-0.84c-0.29-0.25-0.68-0.38-1.18-0.38c0.07-0.6,0.14-1.21,0.21-1.83
			c0.07-0.6,0.14-1.19,0.21-1.79l0.47-4.84c1.1,3.73,2.6,7.97,4.51,12.72c0.24,0.48,0.45,0.96,0.64,1.43l1.9,4.33
			c2.03,4.87,4.5,9.15,7.4,12.83c2.9,3.68,6.86,6.6,11.88,8.78c3.1,1.27,6.39,1.9,9.85,1.9c1.84,0,3.84-0.22,6-0.66
			c2.16-0.44,4.22-1.16,6.18-2.15c1.96-0.99,3.59-2.31,4.91-3.96c0.91-1.19,1.44-2.48,1.61-3.87c0.12-0.96,0.02-1.79-0.29-2.51
			L87.76,68.67z M87.4,71.65c-0.12,1.12-0.56,2.19-1.33,3.19c-1.34,1.6-2.94,2.88-4.82,3.85c-1.87,0.97-3.85,1.67-5.93,2.1
			c-2.08,0.43-4.05,0.64-5.91,0.64c-3.49,0-6.72-0.63-9.71-1.88c-2.99-1.25-5.64-2.87-7.95-4.84c-2.32-1.97-4.2-4.08-5.66-6.32
			c-2.89-4.44-5.34-9.37-7.34-14.8c-2.01-5.42-3.7-10.74-5.09-15.94c-0.12-0.29-0.24-0.43-0.36-0.43c-0.07,0-0.13,0.04-0.18,0.11
			c-0.05,0.07-0.08,0.16-0.11,0.25c0,0.02-0.01,0.14-0.04,0.36c-0.07,0.86-0.31,3.12-0.72,6.77c-0.53,4.54-0.78,6.97-0.75,7.31
			c-0.02,0.33,0.07,0.61,0.29,0.82c0.14,0.12,0.4,0.19,0.77,0.21c0.37,0.02,0.79,0.04,1.27,0.04h0.29c0.64,0,1.15,0.34,1.52,1.02
			c0.37,0.68,0.51,1.51,0.41,2.49c-0.14,0.98-0.48,1.81-1.02,2.49c-0.54,0.68-1.13,1.02-1.77,1.02H16c-0.64,0-1.15-0.34-1.52-1.02
			c-0.37-0.68-0.51-1.51-0.41-2.49c0.14-0.98,0.48-1.81,1.02-2.49c0.54-0.68,1.13-1.02,1.77-1.02c1.1,0,1.87-0.18,2.31-0.54
			c0.44-0.36,0.72-1.09,0.84-2.19l4.44-36.22H23.1c-1.39,0-2.7,0.38-3.94,1.15c-0.21,0.14-0.41,0.33-0.57,0.56
			c-0.17,0.23-0.28,0.46-0.32,0.7v0.04c0,0.12,0.01,0.23,0.04,0.34c0.02,0.11,0.08,0.23,0.18,0.36c0.09,0.13,0.23,0.32,0.39,0.56
			c0.19,0.26,0.44,0.61,0.75,1.04c0.48,0.69,0.67,1.48,0.57,2.36c-0.05,0.24-0.1,0.48-0.14,0.72c-0.41,1.19-1.16,2.11-2.28,2.76
			c-1.11,0.64-2.26,0.97-3.46,0.97c-1.15,0-2.08-0.35-2.81-1.04c-0.73-0.69-1.25-1.55-1.56-2.56c-0.31-1.01-0.41-2.05-0.29-3.1
			v-0.04c0.17-2.05,0.76-4.02,1.79-5.91c1.46-2.22,3.06-3.74,4.8-4.55C18,7.67,19.44,7.24,20.59,7.2h0.18
			c0.17-0.02,0.31-0.04,0.43-0.04c0.19,0,0.32-0.01,0.39-0.04h24c2.36,0,4.44,0.64,6.23,1.92c1.79,1.28,3.12,2.98,3.99,5.11
			c0.87,2.13,1.17,4.5,0.88,7.13c-0.41,2.75-1.24,5.03-2.51,6.86c-1.27,1.83-2.62,3.26-4.07,4.3c-1.45,1.04-2.65,1.75-3.6,2.13
			c-0.5,0.21-0.81,0.35-0.93,0.39C45.57,34.99,45.55,35,45.52,35v0.04c0.05,0.14,0.38,1.35,1,3.62c0.36,1.27,0.87,2.84,1.52,4.73
			c0.66,1.89,1.34,3.79,2.06,5.7c1.36,3.73,3.13,7.61,5.3,11.64c2.01,3.51,3.92,6.25,5.75,8.2c1.83,1.96,3.5,3.37,5.03,4.23
			c1.53,0.86,2.84,1.37,3.92,1.54c1.09,0.17,1.88,0.25,2.38,0.25h0.04c1.31,0,2.36-0.17,3.13-0.52c0.78-0.35,1.49-0.94,2.13-1.77
			c0.5-0.64,0.93-1.34,1.29-2.08c0.41-0.88,0.93-1.68,1.58-2.4c1.05-0.88,2.15-1.33,3.3-1.33c1.1,0,2.05,0.42,2.87,1.25
			c0.07,0.07,0.13,0.14,0.18,0.21C87.42,69.39,87.55,70.5,87.4,71.65z"/>
		<path class="st7" d="M110.23,8.24c-0.29-0.64-0.76-1.12-1.41-1.42c-0.66-0.3-1.44-0.45-2.35-0.45c-0.43,0-0.85,0.01-1.25,0.04
			c-2.2,0.14-4.37,0.21-6.52,0.21L73.93,6.66c-1.82,0-3.74,0.49-5.77,1.47c-2.1,1.17-3.67,2.69-4.71,4.57
			c-1.04,1.88-1.69,3.92-1.95,6.14c-0.17,1.39,0.02,2.73,0.57,4.05l1.93,4.33c0.38,0.91,0.94,1.65,1.68,2.24
			c0.74,0.59,1.66,0.88,2.76,0.88c1.38,0,2.68-0.5,3.89-1.49c1.21-0.99,1.93-2.23,2.17-3.71c0.07-0.79-0.04-1.43-0.32-1.93
			l-1.15-2.72c0.24-0.36,0.64-0.68,1.2-0.97c0.56-0.29,1.06-0.45,1.49-0.5l-3.94,31.99c-0.12,0.67-0.44,1.1-0.95,1.31
			c-0.51,0.2-1.06,0.3-1.63,0.3c-0.64,0-1.2,0.21-1.67,0.64c-0.47,0.43-0.84,0.95-1.11,1.56c-0.27,0.61-0.45,1.19-0.52,1.74
			c-0.05,0.36-0.05,0.76,0,1.22c0.05,0.45,0.15,0.9,0.32,1.33l1.93,4.33c0.17,0.41,0.41,0.74,0.74,1c0.32,0.26,0.73,0.39,1.24,0.39
			h31.1c0.69,0,1.3-0.19,1.83-0.56c0.52-0.37,0.98-0.84,1.36-1.42c1.34-1.91,2.59-3.89,3.76-5.95c0.62-1.1,1.03-2.26,1.22-3.48
			c0.07-0.5,0-0.96-0.21-1.36l-1.9-4.37c-0.45-0.93-1.22-1.4-2.29-1.4c-0.62,0-1.17,0.2-1.65,0.59c-0.48,0.39-0.91,0.83-1.29,1.31
			c-0.07,0.07-0.14,0.14-0.21,0.21c-0.05,0.1-0.11,0.18-0.18,0.25L101.38,49c-1.07,1.24-2.33,2.17-3.76,2.79
			c-1,0.38-2.3,0.62-3.89,0.7c-1.59,0.08-2.9,0.13-3.92,0.13c-1.05,0-2.07-0.04-3.05-0.11c-0.1-0.02-0.18-0.04-0.25-0.04l1.33-10.71
			c0.57-0.05,1.15-0.07,1.72-0.07c1.12,0,2.1,0.16,2.94,0.47c0.84,0.31,1.56,0.91,2.19,1.79l0.29,0.39l0.36,0.39
			c0.21,0.26,0.5,0.47,0.84,0.63c0.35,0.16,0.81,0.23,1.38,0.23c1.36,0,2.48-0.68,3.37-2.04c0.12-0.29,0.26-0.83,0.43-1.63
			c0.17-0.8,0.31-1.62,0.43-2.47c0.12-0.85,0.2-1.46,0.25-1.85l0.21-1.76c0.02-0.29,0.07-0.58,0.14-0.9
			c0.05-0.33,0.09-0.68,0.14-1.04c0.19-1.07,0.13-2.1-0.18-3.08l-1.9-4.37c-0.48-1-1.28-1.5-2.4-1.5c-0.79,0-1.41,0.22-1.88,0.66
			c-0.46,0.44-0.84,1.02-1.13,1.74l-0.29,0.75l-0.43,0.61c-0.26,0.29-0.61,0.51-1.04,0.68c-0.5,0.17-1.11,0.28-1.83,0.34
			c-0.72,0.06-1.43,0.1-2.15,0.13l0.79-6.7c0.07-0.84,0.25-1.58,0.52-2.22c0.27-0.64,0.83-1.19,1.67-1.65
			c0.98-0.45,2.04-0.68,3.19-0.68c1.5,0,2.93,0.11,4.28,0.32c1.35,0.21,2.57,0.66,3.67,1.34c1.1,0.68,2.02,1.7,2.76,3.06
			c0.29,0.57,0.67,1.11,1.16,1.61c0.49,0.5,1.15,0.75,1.99,0.75c1.38,0,2.26-0.8,2.62-2.4c0.07-0.76,0.04-1.49-0.11-2.19
			c-0.07-0.53-0.1-1.12-0.09-1.79c0.01-0.67,0.05-1.3,0.12-1.9c0.07-0.48,0.15-0.93,0.25-1.36c0.09-0.43,0.17-0.86,0.21-1.29
			c0.12-0.91,0.05-1.65-0.21-2.22L110.23,8.24z M109.83,11.35c-0.02,0.05-0.04,0.11-0.05,0.18c-0.01,0.07-0.02,0.13-0.02,0.18
			c-0.1,0.45-0.17,0.9-0.21,1.33c-0.17,1.31-0.18,2.62-0.04,3.9c0.02,0.02,0.04,0.05,0.04,0.07c0.09,0.62,0.12,1.23,0.07,1.83
			c-0.07,0.57-0.3,1.09-0.68,1.54c-0.45,0.38-0.96,0.57-1.5,0.57c-0.36,0-0.72-0.08-1.07-0.25c-0.77-0.48-1.33-1.12-1.68-1.93
			c-1.2-2.08-2.74-3.43-4.62-4.05c-1.89-0.62-4-0.92-6.34-0.9c-1.7,0-3.13,0.41-4.3,1.22c-1,0.98-1.55,2.17-1.65,3.58
			c-0.02,0.31-0.05,0.61-0.07,0.9L86.37,30.3h0.07c0.48,0.02,0.94,0.04,1.4,0.04c1.36,0,2.71-0.07,4.05-0.21
			c0.86-0.07,1.6-0.29,2.22-0.66c0.62-0.37,1.06-1,1.33-1.88c0.19-0.57,0.48-1.07,0.86-1.5c0.52-0.45,1.1-0.68,1.72-0.68
			c0.17,0,0.33,0.01,0.5,0.04c1.12,0.31,1.71,1.06,1.76,2.26c0.02,0.41-0.07,1.55-0.29,3.44c-0.1,0.64-0.19,1.36-0.29,2.15
			c-0.43,3.2-0.79,5.12-1.07,5.77c-0.5,0.84-1.22,1.4-2.15,1.68c-0.31,0.07-0.6,0.11-0.86,0.11c-0.62,0-1.18-0.19-1.68-0.57
			c-0.36-0.29-0.66-0.62-0.9-1c-0.14-0.26-0.32-0.5-0.54-0.72c-0.62-0.57-1.35-0.99-2.19-1.24c-0.84-0.25-1.73-0.38-2.69-0.38
			c-0.07,0-0.14,0-0.21,0c-0.6,0-1.22,0.04-1.86,0.11l-1.58,12.97c-0.12,1,0.08,1.72,0.61,2.15c0.52,0.43,1.22,0.69,2.08,0.77
			c0.86,0.08,1.72,0.13,2.58,0.13c0.24,0,0.47,0,0.68,0c3.84,0,6.46-0.29,7.85-0.86c1.43-0.57,2.75-1.55,3.94-2.94l0.39-0.43
			c0.36-0.55,0.78-1.03,1.27-1.45c0.49-0.42,1.03-0.63,1.63-0.63c0.24,0,0.49,0.05,0.75,0.14c1.05,0.5,1.48,1.31,1.29,2.44
			c-0.14,0.98-0.54,2.04-1.18,3.17c-0.64,1.13-1.3,2.22-1.97,3.24c-0.02,0.02-0.06,0.06-0.11,0.11c-0.17,0.26-0.32,0.51-0.47,0.75
			c-0.5,0.76-0.88,1.34-1.15,1.72c-0.36,0.5-0.77,0.92-1.22,1.25c-0.45,0.33-0.98,0.5-1.58,0.5h-31.1c-0.64,0-1.15-0.34-1.52-1.02
			c-0.37-0.68-0.51-1.51-0.41-2.49c0.14-0.98,0.48-1.81,1.02-2.49c0.54-0.68,1.13-1.02,1.77-1.02c0.67,0,1.31-0.14,1.93-0.41
			c0.62-0.27,1-0.82,1.15-1.63l4.16-33.75c0.09-0.84-0.06-1.55-0.47-2.13c-0.41-0.58-1.03-0.88-1.86-0.88
			c-0.53,0-1.2,0.21-2.02,0.64c-0.82,0.43-1.32,0.97-1.49,1.61c0,0.14,0.01,0.27,0.04,0.38c0.02,0.11,0.08,0.24,0.18,0.39
			c0.09,0.16,0.24,0.35,0.43,0.59c0.14,0.21,0.32,0.48,0.54,0.79c0.41,0.6,0.56,1.3,0.47,2.11c-0.02,0.21-0.07,0.44-0.14,0.68
			c-0.34,1.12-1.03,2.09-2.08,2.9c-1.05,0.81-2.17,1.22-3.37,1.22c-1.12,0-2.05-0.35-2.78-1.04c-0.73-0.69-1.26-1.54-1.58-2.54
			c-0.32-1-0.43-2.03-0.31-3.08v-0.07c0.45-3.15,1.37-5.56,2.74-7.22c1.37-1.66,2.83-2.81,4.37-3.44c1.54-0.63,2.81-0.97,3.81-1.02
			h0.18c0.17-0.02,0.31-0.04,0.43-0.04c0.21,0,0.36-0.01,0.43-0.04l24.76-0.04c0.24,0,0.48,0,0.72,0c0.26,0,0.51,0,0.75,0
			c1.72,0,3.4-0.07,5.05-0.21c0.31-0.02,0.61-0.04,0.9-0.04c0.12,0,0.25,0,0.39,0c0.79,0,1.5,0.15,2.13,0.45
			c0.63,0.3,1.08,0.78,1.34,1.45c0.14,0.55,0.19,1.13,0.14,1.76C110.03,10.74,109.95,11.04,109.83,11.35z"/>
	</g>
	<g class="st3">
		<path class="st8" d="M104.32,1.84c-0.63-0.3-1.34-0.45-2.13-0.45c-0.14,0-0.28,0-0.39,0c-0.29,0-0.59,0.01-0.9,0.04
			c-1.65,0.14-3.33,0.21-5.05,0.21c-0.24,0-0.49,0-0.75,0c-0.24,0-0.48,0-0.72,0L69.62,1.67c-0.07,0.02-0.21,0.04-0.43,0.04
			c-0.12,0-0.26,0.01-0.43,0.04h-0.18c-1,0.05-2.28,0.39-3.81,1.02c-1.54,0.63-3,1.78-4.37,3.44c-1.37,1.66-2.29,4.07-2.74,7.22
			v0.07c-0.12,1.05-0.02,2.08,0.31,3.08c0.32,1,0.85,1.85,1.58,2.54c0.73,0.69,1.65,1.04,2.78,1.04c1.19,0,2.32-0.41,3.37-1.22
			c1.05-0.81,1.74-1.78,2.08-2.9c0.07-0.24,0.12-0.47,0.14-0.68c0.09-0.81-0.06-1.52-0.47-2.11c-0.21-0.31-0.39-0.57-0.54-0.79
			c-0.19-0.24-0.34-0.44-0.43-0.59c-0.1-0.15-0.16-0.29-0.18-0.39c-0.02-0.11-0.04-0.23-0.04-0.38c0.17-0.64,0.66-1.18,1.49-1.61
			c0.83-0.43,1.5-0.64,2.02-0.64c0.84,0,1.46,0.29,1.86,0.88c0.41,0.59,0.56,1.3,0.47,2.13L67.94,45.6
			c-0.14,0.81-0.53,1.36-1.15,1.63c-0.62,0.28-1.27,0.41-1.93,0.41c-0.64,0-1.24,0.34-1.77,1.02c-0.54,0.68-0.88,1.51-1.02,2.49
			c-0.1,0.98,0.04,1.81,0.41,2.49c0.37,0.68,0.88,1.02,1.52,1.02h31.1c0.6,0,1.12-0.17,1.58-0.5c0.45-0.33,0.86-0.75,1.22-1.25
			c0.26-0.38,0.64-0.96,1.15-1.72c0.14-0.24,0.3-0.49,0.47-0.75c0.05-0.05,0.08-0.08,0.11-0.11c0.67-1.03,1.33-2.11,1.97-3.24
			c0.64-1.13,1.04-2.19,1.18-3.17c0.19-1.12-0.24-1.93-1.29-2.44c-0.26-0.1-0.51-0.14-0.75-0.14c-0.6,0-1.14,0.21-1.63,0.63
			c-0.49,0.42-0.91,0.9-1.27,1.45l-0.39,0.43c-1.2,1.39-2.51,2.36-3.94,2.94c-1.39,0.57-4,0.86-7.85,0.86c-0.21,0-0.44,0-0.68,0
			c-0.86,0-1.72-0.04-2.58-0.13c-0.86-0.08-1.55-0.34-2.08-0.77c-0.53-0.43-0.73-1.15-0.61-2.15l1.58-12.97
			c0.64-0.07,1.27-0.11,1.86-0.11c0.07,0,0.14,0,0.21,0c0.95,0,1.85,0.13,2.69,0.38c0.84,0.25,1.56,0.66,2.19,1.24
			c0.21,0.21,0.39,0.45,0.54,0.72c0.24,0.38,0.54,0.72,0.9,1c0.5,0.38,1.06,0.57,1.68,0.57c0.26,0,0.55-0.04,0.86-0.11
			c0.93-0.29,1.65-0.85,2.15-1.68c0.29-0.64,0.64-2.57,1.07-5.77c0.09-0.79,0.19-1.5,0.29-2.15c0.21-1.89,0.31-3.03,0.29-3.44
			c-0.05-1.19-0.63-1.95-1.76-2.26c-0.17-0.02-0.34-0.04-0.5-0.04c-0.62,0-1.2,0.23-1.72,0.68c-0.38,0.43-0.67,0.93-0.86,1.5
			c-0.26,0.88-0.71,1.51-1.33,1.88c-0.62,0.37-1.36,0.59-2.22,0.66c-1.34,0.14-2.69,0.21-4.05,0.21c-0.45,0-0.92-0.01-1.4-0.04
			h-0.07l1.33-10.78c0.02-0.29,0.05-0.58,0.07-0.9c0.09-1.41,0.64-2.6,1.65-3.58c1.17-0.81,2.6-1.22,4.3-1.22
			c2.34-0.02,4.45,0.28,6.34,0.9c1.89,0.62,3.43,1.97,4.62,4.05c0.36,0.81,0.92,1.46,1.68,1.93c0.36,0.17,0.72,0.25,1.07,0.25
			c0.55,0,1.05-0.19,1.5-0.57c0.38-0.45,0.61-0.97,0.68-1.54c0.05-0.6,0.02-1.21-0.07-1.83c0-0.02-0.01-0.05-0.04-0.07
			c-0.14-1.29-0.13-2.59,0.04-3.9c0.05-0.43,0.12-0.87,0.21-1.33c0-0.05,0.01-0.11,0.02-0.18c0.01-0.07,0.03-0.13,0.05-0.18
			c0.12-0.31,0.2-0.61,0.25-0.9c0.05-0.62,0-1.21-0.14-1.76C105.4,2.62,104.95,2.13,104.32,1.84z"/>
		<path class="st8" d="M82.55,62.68c-0.81-0.84-1.77-1.25-2.87-1.25c-1.15,0-2.25,0.44-3.3,1.33c-0.64,0.72-1.17,1.52-1.58,2.4
			c-0.36,0.74-0.79,1.43-1.29,2.08c-0.64,0.84-1.36,1.43-2.13,1.77c-0.78,0.35-1.82,0.52-3.13,0.52h-0.04c-0.5,0-1.3-0.08-2.38-0.25
			c-1.09-0.17-2.4-0.68-3.92-1.54c-1.53-0.86-3.21-2.27-5.03-4.23c-1.83-1.96-3.74-4.69-5.75-8.2c-2.17-4.04-3.94-7.92-5.3-11.64
			c-0.72-1.91-1.4-3.81-2.06-5.7c-0.66-1.89-1.17-3.46-1.52-4.73c-0.62-2.27-0.96-3.48-1-3.62v-0.04c0.02,0,0.05-0.01,0.07-0.04
			c0.12-0.05,0.43-0.18,0.93-0.39c0.95-0.38,2.16-1.09,3.6-2.13c1.44-1.04,2.8-2.47,4.07-4.3c1.27-1.83,2.1-4.11,2.51-6.86
			c0.29-2.63-0.01-5-0.88-7.13c-0.87-2.13-2.2-3.83-3.99-5.11c-1.79-1.28-3.87-1.92-6.23-1.92h-24c-0.07,0.02-0.2,0.04-0.39,0.04
			c-0.12,0-0.26,0.01-0.43,0.04h-0.18c-1.15,0.05-2.59,0.48-4.33,1.29c-1.74,0.81-3.34,2.33-4.8,4.55
			c-1.03,1.89-1.63,3.86-1.79,5.91v0.04c-0.12,1.05-0.02,2.08,0.29,3.1c0.31,1.02,0.83,1.87,1.56,2.56
			c0.73,0.69,1.67,1.04,2.81,1.04c1.19,0,2.35-0.32,3.46-0.97c1.11-0.64,1.87-1.56,2.28-2.76c0.05-0.24,0.09-0.48,0.14-0.72
			c0.09-0.88-0.1-1.67-0.57-2.36c-0.31-0.43-0.56-0.78-0.75-1.04c-0.17-0.24-0.3-0.42-0.39-0.56c-0.1-0.13-0.16-0.25-0.18-0.36
			c-0.02-0.11-0.04-0.22-0.04-0.34v-0.04c0.05-0.24,0.15-0.47,0.32-0.7c0.17-0.23,0.36-0.41,0.57-0.56
			c1.24-0.76,2.56-1.15,3.94-1.15h1.36l-4.44,36.22c-0.12,1.1-0.4,1.83-0.84,2.19c-0.44,0.36-1.21,0.54-2.31,0.54
			c-0.64,0-1.24,0.34-1.77,1.02c-0.54,0.68-0.88,1.51-1.02,2.49c-0.1,0.98,0.04,1.81,0.41,2.49c0.37,0.68,0.88,1.02,1.52,1.02H29
			c0.64,0,1.24-0.34,1.77-1.02c0.54-0.68,0.88-1.51,1.02-2.49c0.09-0.98-0.04-1.81-0.41-2.49c-0.37-0.68-0.88-1.02-1.52-1.02h-0.29
			c-0.48,0-0.9-0.01-1.27-0.04c-0.37-0.02-0.63-0.1-0.77-0.21c-0.21-0.21-0.31-0.49-0.29-0.82c-0.02-0.33,0.23-2.77,0.75-7.31
			c0.41-3.65,0.64-5.91,0.72-6.77c0.02-0.21,0.04-0.33,0.04-0.36c0.02-0.1,0.06-0.18,0.11-0.25c0.05-0.07,0.11-0.11,0.18-0.11
			c0.12,0,0.24,0.14,0.36,0.43c1.38,5.21,3.08,10.52,5.09,15.94c2.01,5.42,4.45,10.35,7.34,14.8c1.46,2.24,3.34,4.35,5.66,6.32
			c2.32,1.97,4.97,3.58,7.95,4.84c2.98,1.25,6.22,1.88,9.71,1.88c1.86,0,3.83-0.21,5.91-0.64c2.08-0.43,4.05-1.13,5.93-2.1
			c1.88-0.97,3.48-2.25,4.82-3.85c0.76-1,1.21-2.07,1.33-3.19c0.14-1.15,0.01-2.26-0.39-3.33C82.68,62.83,82.63,62.76,82.55,62.68z
			 M40.28,16.29c-0.21,1.72-1.06,3.15-2.52,4.3c-1.47,1.15-3.52,1.72-6.14,1.72c-0.41,0-0.74-0.07-1-0.21
			c-0.26-0.14-0.39-0.32-0.39-0.54l1.36-10.86c0.02-0.21,0.18-0.39,0.48-0.54c0.3-0.14,0.65-0.21,1.06-0.21c1.77,0,3.2,0.3,4.3,0.9
			c1.1,0.6,1.88,1.37,2.35,2.33C40.23,14.13,40.4,15.17,40.28,16.29z"/>
		<path class="st9" d="M37.41,10.85c-1.1-0.6-2.53-0.9-4.3-0.9c-0.41,0-0.76,0.07-1.06,0.21c-0.3,0.14-0.46,0.32-0.48,0.54
			l-1.36,10.86c0,0.21,0.13,0.39,0.39,0.54c0.26,0.14,0.6,0.21,1,0.21c2.63,0,4.67-0.57,6.14-1.72c1.47-1.15,2.31-2.58,2.52-4.3
			c0.12-1.12-0.05-2.16-0.52-3.12C39.29,12.22,38.51,11.44,37.41,10.85z M39.85,16.29c-0.29,1.77-1.08,3.09-2.38,3.98
			c-1.3,0.88-2.77,1.4-4.39,1.54L33.94,15l0.25-0.14c0.14-0.07,0.29-0.11,0.45-0.13c0.16-0.01,0.27-0.02,0.34-0.02
			c0.88,0,1.75,0.1,2.6,0.3c0.85,0.2,1.61,0.56,2.28,1.06V16.29z"/>
		<path class="st9" d="M83.49,63.26c-0.69-1.5-1.96-2.26-3.8-2.26c-1.36,0-2.44,0.38-3.22,1.13s-1.46,1.71-2.01,2.88
			c-0.74,1.48-1.55,2.53-2.42,3.15c-0.87,0.62-2.11,0.93-3.71,0.93c-2.34,0-4.49-0.62-6.45-1.86c-1.96-1.24-3.74-2.82-5.34-4.73
			c-1.6-1.91-3.02-3.94-4.26-6.09c-1.24-2.15-2.31-4.18-3.19-6.09c-1.55-3.8-2.9-7.69-4.05-11.68l-1.4-4.51l0.64-0.25
			c0.84-0.36,1.62-0.79,2.36-1.29c0.09-0.07,0.19-0.13,0.29-0.18c4.54-2.98,7.14-7.06,7.81-12.22c0.31-2.79-0.04-5.37-1.04-7.74
			l-1.93-4.33c-0.88-2.03-2.2-3.68-3.96-4.94c-1.75-1.27-3.9-1.9-6.43-1.9h-24c-1.84,0-3.76,0.49-5.77,1.47
			C8.3,4.66,6.21,7.45,5.35,11.13c-0.17,0.79-0.3,1.59-0.39,2.4c-0.17,1.39,0.02,2.73,0.57,4.05l1.9,4.33
			c0.41,0.91,0.98,1.65,1.72,2.24c0.74,0.59,1.66,0.88,2.76,0.88c1.43,0,2.78-0.42,4.05-1.25c1.27-0.84,2.02-2.05,2.26-3.65
			c0.07-0.76-0.01-1.41-0.25-1.93L16.56,15c0.72-0.74,1.59-1.19,2.62-1.36l-3.87,31.31c-0.1,0.98-0.33,1.61-0.7,1.88
			c-0.37,0.28-1.03,0.41-1.99,0.41c-0.62,0-1.16,0.22-1.63,0.66c-0.46,0.44-0.84,0.96-1.11,1.56c-0.28,0.6-0.45,1.17-0.52,1.72
			c-0.05,0.36-0.05,0.76,0,1.22c0.05,0.45,0.15,0.9,0.32,1.33l1.93,4.33c0.17,0.41,0.41,0.74,0.73,1c0.32,0.26,0.74,0.39,1.24,0.39
			h17.27c0.62,0,1.17-0.21,1.63-0.64c0.47-0.43,0.84-0.95,1.11-1.56c0.27-0.61,0.45-1.19,0.52-1.74c0.14-0.96,0-1.86-0.43-2.72
			l-1.93-4.33c-0.17-0.31-0.39-0.59-0.68-0.84c-0.29-0.25-0.68-0.38-1.18-0.38c0.07-0.6,0.14-1.21,0.21-1.83
			c0.07-0.6,0.14-1.19,0.21-1.79l0.47-4.84c1.1,3.73,2.6,7.97,4.51,12.72c0.24,0.48,0.45,0.96,0.64,1.43l1.9,4.33
			c2.03,4.87,4.5,9.15,7.4,12.83c2.9,3.68,6.86,6.6,11.88,8.78c3.1,1.27,6.39,1.9,9.85,1.9c1.84,0,3.84-0.22,6-0.66
			c2.16-0.44,4.22-1.16,6.18-2.15c1.96-0.99,3.59-2.31,4.91-3.96c0.91-1.19,1.44-2.48,1.61-3.87c0.12-0.96,0.02-1.79-0.29-2.51
			L83.49,63.26z M83.13,66.23c-0.12,1.12-0.56,2.19-1.33,3.19c-1.34,1.6-2.94,2.88-4.82,3.85c-1.87,0.97-3.85,1.67-5.93,2.1
			c-2.08,0.43-4.05,0.64-5.91,0.64c-3.49,0-6.72-0.63-9.71-1.88c-2.99-1.25-5.64-2.87-7.95-4.84c-2.32-1.97-4.2-4.08-5.66-6.32
			c-2.89-4.44-5.34-9.37-7.34-14.8c-2.01-5.42-3.7-10.74-5.09-15.94c-0.12-0.29-0.24-0.43-0.36-0.43c-0.07,0-0.13,0.04-0.18,0.11
			c-0.05,0.07-0.08,0.16-0.11,0.25c0,0.02-0.01,0.14-0.04,0.36c-0.07,0.86-0.31,3.12-0.72,6.77c-0.53,4.54-0.78,6.97-0.75,7.31
			c-0.02,0.33,0.07,0.61,0.29,0.82c0.14,0.12,0.4,0.19,0.77,0.21c0.37,0.02,0.79,0.04,1.27,0.04h0.29c0.64,0,1.15,0.34,1.52,1.02
			c0.37,0.68,0.51,1.51,0.41,2.49c-0.14,0.98-0.48,1.81-1.02,2.49c-0.54,0.68-1.13,1.02-1.77,1.02H11.73
			c-0.64,0-1.15-0.34-1.52-1.02c-0.37-0.68-0.51-1.51-0.41-2.49c0.14-0.98,0.48-1.81,1.02-2.49c0.54-0.68,1.13-1.02,1.77-1.02
			c1.1,0,1.87-0.18,2.31-0.54c0.44-0.36,0.72-1.09,0.84-2.19l4.44-36.22h-1.36c-1.39,0-2.7,0.38-3.94,1.15
			c-0.21,0.14-0.41,0.33-0.57,0.56c-0.17,0.23-0.28,0.46-0.32,0.7v0.04c0,0.12,0.01,0.23,0.04,0.34c0.02,0.11,0.08,0.23,0.18,0.36
			c0.09,0.13,0.23,0.32,0.39,0.56c0.19,0.26,0.44,0.61,0.75,1.04c0.48,0.69,0.67,1.48,0.57,2.36c-0.05,0.24-0.1,0.48-0.14,0.72
			c-0.41,1.19-1.16,2.11-2.28,2.76c-1.11,0.64-2.26,0.97-3.46,0.97c-1.15,0-2.08-0.35-2.81-1.04c-0.73-0.69-1.25-1.55-1.56-2.56
			c-0.31-1.01-0.41-2.05-0.29-3.1v-0.04c0.17-2.05,0.76-4.02,1.79-5.91c1.46-2.22,3.06-3.74,4.8-4.55c1.74-0.81,3.19-1.24,4.33-1.29
			h0.18c0.17-0.02,0.31-0.04,0.43-0.04c0.19,0,0.32-0.01,0.39-0.04h24c2.36,0,4.44,0.64,6.23,1.92c1.79,1.28,3.12,2.98,3.99,5.11
			c0.87,2.13,1.17,4.5,0.88,7.13c-0.41,2.75-1.24,5.03-2.51,6.86c-1.27,1.83-2.62,3.26-4.07,4.3c-1.45,1.04-2.65,1.75-3.6,2.13
			c-0.5,0.21-0.81,0.35-0.93,0.39c-0.02,0.02-0.05,0.04-0.07,0.04v0.04c0.05,0.14,0.38,1.35,1,3.62c0.36,1.27,0.87,2.84,1.52,4.73
			c0.66,1.89,1.34,3.79,2.06,5.7c1.36,3.73,3.13,7.61,5.3,11.64c2.01,3.51,3.92,6.25,5.75,8.2c1.83,1.96,3.5,3.37,5.03,4.23
			c1.53,0.86,2.84,1.37,3.92,1.54c1.09,0.17,1.88,0.25,2.38,0.25h0.04c1.31,0,2.36-0.17,3.13-0.52c0.78-0.35,1.49-0.94,2.13-1.77
			c0.5-0.64,0.93-1.34,1.29-2.08c0.41-0.88,0.93-1.68,1.58-2.4c1.05-0.88,2.15-1.33,3.3-1.33c1.1,0,2.05,0.42,2.87,1.25
			c0.07,0.07,0.13,0.14,0.18,0.21C83.14,63.97,83.27,65.08,83.13,66.23z"/>
		<path class="st9" d="M105.95,2.82c-0.29-0.64-0.76-1.12-1.41-1.42c-0.66-0.3-1.44-0.45-2.35-0.45c-0.43,0-0.85,0.01-1.25,0.04
			c-2.2,0.14-4.37,0.21-6.52,0.21L69.66,1.24c-1.82,0-3.74,0.49-5.77,1.47c-2.1,1.17-3.67,2.69-4.71,4.57
			c-1.04,1.88-1.69,3.92-1.95,6.14c-0.17,1.39,0.02,2.73,0.57,4.05l1.93,4.33c0.38,0.91,0.94,1.65,1.68,2.24
			c0.74,0.59,1.66,0.88,2.76,0.88c1.38,0,2.68-0.5,3.89-1.49c1.21-0.99,1.93-2.23,2.17-3.71c0.07-0.79-0.04-1.43-0.32-1.93
			l-1.15-2.72c0.24-0.36,0.64-0.68,1.2-0.97c0.56-0.29,1.06-0.45,1.49-0.5L67.51,45.6c-0.12,0.67-0.44,1.1-0.95,1.31
			c-0.51,0.2-1.06,0.3-1.63,0.3c-0.64,0-1.2,0.21-1.67,0.64c-0.47,0.43-0.84,0.95-1.11,1.56c-0.27,0.61-0.45,1.19-0.52,1.74
			c-0.05,0.36-0.05,0.76,0,1.22c0.05,0.45,0.15,0.9,0.32,1.33l1.93,4.33c0.17,0.41,0.41,0.74,0.74,1c0.32,0.26,0.73,0.39,1.24,0.39
			h31.1c0.69,0,1.3-0.19,1.83-0.56c0.52-0.37,0.98-0.84,1.36-1.42c1.34-1.91,2.59-3.89,3.76-5.95c0.62-1.1,1.03-2.26,1.22-3.48
			c0.07-0.5,0-0.96-0.21-1.36l-1.9-4.37c-0.45-0.93-1.22-1.4-2.29-1.4c-0.62,0-1.17,0.2-1.65,0.59c-0.48,0.39-0.91,0.83-1.29,1.31
			c-0.07,0.07-0.14,0.14-0.21,0.21c-0.05,0.1-0.11,0.18-0.18,0.25l-0.29,0.32c-1.07,1.24-2.33,2.17-3.76,2.79
			c-1,0.38-2.3,0.62-3.89,0.7c-1.59,0.08-2.9,0.13-3.92,0.13c-1.05,0-2.07-0.04-3.05-0.11c-0.1-0.02-0.18-0.04-0.25-0.04l1.33-10.71
			c0.57-0.05,1.15-0.07,1.72-0.07c1.12,0,2.1,0.16,2.94,0.47c0.84,0.31,1.56,0.91,2.19,1.79l0.29,0.39l0.36,0.39
			c0.21,0.26,0.5,0.47,0.84,0.63c0.35,0.16,0.81,0.23,1.38,0.23c1.36,0,2.48-0.68,3.37-2.04c0.12-0.29,0.26-0.83,0.43-1.63
			c0.17-0.8,0.31-1.62,0.43-2.47c0.12-0.85,0.2-1.46,0.25-1.84l0.21-1.76c0.02-0.29,0.07-0.58,0.14-0.9
			c0.05-0.33,0.09-0.68,0.14-1.04c0.19-1.07,0.13-2.1-0.18-3.08l-1.9-4.37c-0.48-1-1.28-1.5-2.4-1.5c-0.79,0-1.41,0.22-1.88,0.66
			c-0.46,0.44-0.84,1.02-1.13,1.74l-0.29,0.75l-0.43,0.61c-0.26,0.29-0.61,0.51-1.04,0.68c-0.5,0.17-1.11,0.28-1.83,0.34
			c-0.72,0.06-1.43,0.1-2.15,0.13l0.79-6.7c0.07-0.84,0.25-1.58,0.52-2.22c0.27-0.64,0.83-1.19,1.67-1.65
			c0.98-0.45,2.04-0.68,3.19-0.68c1.5,0,2.93,0.11,4.28,0.32c1.35,0.21,2.57,0.66,3.67,1.34c1.1,0.68,2.02,1.7,2.76,3.06
			c0.29,0.57,0.67,1.11,1.16,1.61c0.49,0.5,1.15,0.75,1.99,0.75c1.38,0,2.26-0.8,2.62-2.4c0.07-0.76,0.04-1.49-0.11-2.19
			c-0.07-0.53-0.1-1.12-0.09-1.79c0.01-0.67,0.05-1.3,0.12-1.9c0.07-0.48,0.15-0.93,0.25-1.36c0.09-0.43,0.17-0.86,0.21-1.29
			c0.12-0.91,0.05-1.65-0.21-2.22L105.95,2.82z M105.55,5.94c-0.02,0.05-0.04,0.11-0.05,0.18c-0.01,0.07-0.02,0.13-0.02,0.18
			c-0.1,0.45-0.17,0.9-0.21,1.33c-0.17,1.31-0.18,2.62-0.04,3.9c0.02,0.02,0.04,0.05,0.04,0.07c0.09,0.62,0.12,1.23,0.07,1.83
			c-0.07,0.57-0.3,1.09-0.68,1.54c-0.45,0.38-0.96,0.57-1.5,0.57c-0.36,0-0.72-0.08-1.07-0.25c-0.77-0.48-1.33-1.12-1.68-1.93
			c-1.2-2.08-2.74-3.43-4.62-4.05c-1.89-0.62-4-0.92-6.34-0.9c-1.7,0-3.13,0.41-4.3,1.22c-1,0.98-1.55,2.17-1.65,3.58
			c-0.02,0.31-0.05,0.61-0.07,0.9l-1.33,10.78h0.07c0.48,0.02,0.94,0.04,1.4,0.04c1.36,0,2.71-0.07,4.05-0.21
			c0.86-0.07,1.6-0.29,2.22-0.66c0.62-0.37,1.06-1,1.33-1.88c0.19-0.57,0.48-1.07,0.86-1.5c0.52-0.45,1.1-0.68,1.72-0.68
			c0.17,0,0.33,0.01,0.5,0.04c1.12,0.31,1.71,1.06,1.76,2.26c0.02,0.41-0.07,1.55-0.29,3.44c-0.1,0.64-0.19,1.36-0.29,2.15
			c-0.43,3.2-0.79,5.12-1.07,5.77c-0.5,0.84-1.22,1.4-2.15,1.68c-0.31,0.07-0.6,0.11-0.86,0.11c-0.62,0-1.18-0.19-1.68-0.57
			c-0.36-0.29-0.66-0.62-0.9-1c-0.14-0.26-0.32-0.5-0.54-0.72c-0.62-0.57-1.35-0.99-2.19-1.24c-0.84-0.25-1.73-0.38-2.69-0.38
			c-0.07,0-0.14,0-0.21,0c-0.6,0-1.22,0.04-1.86,0.11l-1.58,12.97c-0.12,1,0.08,1.72,0.61,2.15c0.52,0.43,1.22,0.69,2.08,0.77
			c0.86,0.08,1.72,0.13,2.58,0.13c0.24,0,0.47,0,0.68,0c3.84,0,6.46-0.29,7.85-0.86c1.43-0.57,2.75-1.55,3.94-2.94l0.39-0.43
			c0.36-0.55,0.78-1.03,1.27-1.45c0.49-0.42,1.03-0.63,1.63-0.63c0.24,0,0.49,0.05,0.75,0.14c1.05,0.5,1.48,1.31,1.29,2.44
			c-0.14,0.98-0.54,2.04-1.18,3.17c-0.64,1.13-1.3,2.22-1.97,3.24c-0.02,0.02-0.06,0.06-0.11,0.11c-0.17,0.26-0.32,0.51-0.47,0.75
			c-0.5,0.76-0.88,1.34-1.15,1.72c-0.36,0.5-0.77,0.92-1.22,1.25c-0.45,0.33-0.98,0.5-1.58,0.5H64c-0.64,0-1.15-0.34-1.52-1.02
			c-0.37-0.68-0.51-1.51-0.41-2.49c0.14-0.98,0.48-1.81,1.02-2.49c0.54-0.68,1.13-1.02,1.77-1.02c0.67,0,1.31-0.14,1.93-0.41
			c0.62-0.27,1-0.82,1.15-1.63l4.16-33.75c0.09-0.84-0.06-1.55-0.47-2.13c-0.41-0.58-1.03-0.88-1.86-0.88
			c-0.53,0-1.2,0.21-2.02,0.64c-0.82,0.43-1.32,0.97-1.49,1.61c0,0.14,0.01,0.27,0.04,0.38c0.02,0.11,0.08,0.24,0.18,0.39
			c0.09,0.16,0.24,0.35,0.43,0.59c0.14,0.21,0.32,0.48,0.54,0.79c0.41,0.6,0.56,1.3,0.47,2.11c-0.02,0.21-0.07,0.44-0.14,0.68
			c-0.34,1.12-1.03,2.09-2.08,2.9c-1.05,0.81-2.17,1.22-3.37,1.22c-1.12,0-2.05-0.35-2.78-1.04c-0.73-0.69-1.26-1.54-1.58-2.54
			c-0.32-1-0.43-2.03-0.31-3.08v-0.07c0.45-3.15,1.37-5.56,2.74-7.22c1.37-1.66,2.83-2.81,4.37-3.44c1.54-0.63,2.81-0.97,3.81-1.02
			h0.18c0.17-0.02,0.31-0.04,0.43-0.04c0.21,0,0.36-0.01,0.43-0.04l24.76-0.04c0.24,0,0.48,0,0.72,0c0.26,0,0.51,0,0.75,0
			c1.72,0,3.4-0.07,5.05-0.21c0.31-0.02,0.61-0.04,0.9-0.04c0.12,0,0.25,0,0.39,0c0.79,0,1.5,0.15,2.13,0.45
			c0.63,0.3,1.08,0.78,1.34,1.45c0.14,0.55,0.19,1.13,0.14,1.76C105.76,5.33,105.67,5.63,105.55,5.94z"/>
	</g>
</g>
<g>
	<circle class="st12" cx="50.15" cy="49.95" r="47.65"/>
	<circle class="st13" cx="50.19" cy="49.76" r="47.65"/>
	<g>
		<g>
			<path class="st0" d="M84.61,40.78c-0.94,0-1.77,0-2.5,0.01c-0.73,0.01-1.48,0.01-2.24,0.01c-0.85,0-1.63,0-2.34-0.01
				c-0.71-0.01-1.18-0.02-1.42-0.03c-0.12-0.01-0.24-0.02-0.37-0.02c-0.26,0-0.53,0.04-0.79,0.11c-0.51,0.16-0.9,0.44-1.16,0.83
				c-0.26,0.4-0.42,0.83-0.46,1.32c-0.04,0.28-0.05,0.55-0.02,0.81c0.03,0.37,0.16,0.67,0.4,0.9c0.19,0.16,0.41,0.26,0.67,0.3
				c0.26,0.04,0.52,0.05,0.78,0.05c0.28,0,0.54,0.02,0.78,0.05c0.24,0.04,0.42,0.14,0.55,0.32c0.12,0.18,0.17,0.47,0.12,0.88
				l-1.34,10.94c-0.15,0.86-0.4,1.3-0.75,1.3c-0.25,0-0.5-0.21-0.75-0.64c-1.13-1.89-2.15-3.84-3.08-5.87
				c-1.52-3.37-3.27-6.6-5.25-9.69l-0.18-0.29c-0.13-0.23-0.29-0.46-0.47-0.67c-0.18-0.21-0.38-0.37-0.6-0.47
				c-0.37-0.15-0.75-0.22-1.16-0.22c-0.1,0-0.21,0.01-0.33,0.02h-0.4l-4.53,0.04c-0.04,0-0.1,0-0.15,0c-1.79,0-3.3,0.38-4.53,1.14
				c-1.27,0.79-2.26,1.74-2.97,2.86c-0.69,1.08-1.1,2.12-1.23,3.12c0,0.03,0,0.07,0,0.11v0.02c-0.09,0.66-0.03,1.3,0.18,1.91
				c0.2,0.62,0.53,1.13,0.99,1.55c0.45,0.42,1.03,0.63,1.74,0.63c1.89,0,2.98-0.73,3.27-2.2c0.04-0.18,0.08-0.34,0.11-0.51
				c0.06-0.56-0.03-1.03-0.26-1.43c-0.32-0.51-0.54-0.83-0.64-0.97c-0.09-0.13-0.12-0.28-0.11-0.44c0.09-0.41,0.36-0.75,0.81-1.01
				c0.45-0.26,0.87-0.4,1.25-0.4c0.44,0,0.81,0.14,1.12,0.43c0.31,0.29,0.5,0.66,0.57,1.11L55.33,67.8c-0.09,0.5-0.33,0.83-0.71,1
				c-0.39,0.17-0.79,0.25-1.2,0.25c-0.4,0-0.76,0.19-1.09,0.58c-0.33,0.39-0.53,0.89-0.6,1.5c-0.07,0.6,0.01,1.11,0.24,1.53
				c0.23,0.42,0.55,0.63,0.94,0.63H62c0.4,0,0.76-0.21,1.09-0.63c0.33-0.42,0.54-0.93,0.63-1.53c0.06-0.62-0.03-1.12-0.26-1.5
				c-0.23-0.39-0.55-0.58-0.94-0.58h-0.29c-0.1,0-0.2,0-0.29,0c-0.29,0-0.56-0.1-0.79-0.31c-0.23-0.31-0.31-0.67-0.22-1.08
				l1.56-12.7c-0.03,0.26,0.39,1.18,1.25,2.75l6.35,10.92c1.27,2.12,2.16,3.49,2.66,4.09c0.48,0.6,1.24,0.94,2.28,1.03
				c0.07,0,0.15,0,0.22,0c1,0,1.84-0.36,2.53-1.08c0.69-0.72,1.13-1.64,1.32-2.77l2.88-23.59c0.06-0.48,0.17-0.81,0.34-0.97
				c0.17-0.16,0.38-0.24,0.65-0.24c0.13,0,0.27,0.01,0.42,0.02h0.31c0.45,0,0.9-0.09,1.33-0.26c0.43-0.18,0.7-0.56,0.8-1.16
				l0.15-1.34c0.07-0.44,0.03-0.81-0.13-1.12C85.68,40.94,85.27,40.78,84.61,40.78z"/>
			<path class="st1" d="M86.92,42.79c-0.14-0.51-0.27-0.91-0.38-1.22c-0.23-0.7-0.86-1.05-1.89-1.05l-7.34,0.02
				c-0.26,0-0.52-0.01-0.77-0.04c-0.25-0.01-0.5-0.02-0.75-0.02c-1.61,0-2.53,0.86-2.77,2.59c-0.07,0.62-0.02,1.08,0.15,1.41
				l1.16,2.66c0.16,0.32,0.41,0.55,0.75,0.67c0.34,0.12,0.68,0.19,1.03,0.19l-1.14,9.27c0,0.09-0.02,0.21-0.06,0.37
				c-0.04,0.16-0.09,0.31-0.15,0.45c-0.07,0.14-0.16,0.21-0.28,0.21c-0.06,0-0.12-0.03-0.2-0.1c-0.07-0.07-0.14-0.14-0.19-0.22
				c-0.05-0.08-0.09-0.15-0.12-0.21c-1.58-2.91-3.09-5.86-4.53-8.83c-1.13-2.36-2.39-4.6-3.8-6.72c-0.07-0.12-0.15-0.23-0.22-0.33
				c-0.13-0.23-0.28-0.45-0.44-0.66c-0.26-0.29-0.56-0.49-0.9-0.6c-0.34-0.11-0.7-0.16-1.08-0.16l-5.23,0.07
				c-0.83,0-1.66,0.08-2.46,0.25c-0.81,0.17-1.6,0.49-2.39,0.96c-1.16,0.72-2.12,1.61-2.9,2.69c-0.78,1.08-1.25,2.27-1.43,3.59
				c-0.1,0.83,0.01,1.65,0.35,2.46l1.16,2.66c0.25,0.56,0.6,1.01,1.05,1.37c0.45,0.36,1.03,0.54,1.74,0.54
				c0.98,0,1.8-0.23,2.46-0.68c0.66-0.45,1.06-1.22,1.21-2.28c0.06-0.54-0.01-1-0.2-1.36l-0.75-1.69c0.16-0.25,0.42-0.46,0.78-0.65
				c0.36-0.18,0.67-0.27,0.93-0.27h0.11l-2.42,19.7c-0.07,0.41-0.27,0.68-0.6,0.8c-0.33,0.12-0.66,0.19-1,0.19
				c-0.4,0-0.74,0.12-1.02,0.37c-0.28,0.25-0.51,0.55-0.68,0.91c-0.17,0.36-0.27,0.71-0.3,1.07c-0.03,0.22-0.03,0.47-0.01,0.75
				c0.02,0.28,0.09,0.55,0.21,0.81l1.19,2.66c0.1,0.25,0.25,0.45,0.44,0.62c0.19,0.16,0.44,0.24,0.75,0.24h9.09
				c0.4,0,0.74-0.13,1.02-0.4c0.28-0.26,0.51-0.58,0.68-0.96c0.17-0.37,0.28-0.73,0.32-1.07c0.06-0.47-0.01-0.97-0.2-1.49
				l-1.16-2.66c-0.12-0.25-0.28-0.45-0.47-0.62c-0.2-0.16-0.45-0.24-0.76-0.24l1.21-9.97l0.18,0.35c0.15,0.28,0.64,1.16,1.49,2.65
				c0.85,1.49,1.8,3.15,2.86,4.98c1.05,1.83,1.96,3.38,2.72,4.66c0.1,0.16,0.2,0.33,0.31,0.51c0.31,0.53,0.63,1.06,0.97,1.6
				c0.47,0.75,0.94,1.42,1.41,2.02c0.34,0.4,0.75,0.68,1.23,0.85c0.48,0.17,0.99,0.25,1.52,0.25c0.73,0,1.39-0.2,1.98-0.59
				c0.59-0.4,1.06-0.9,1.43-1.53c0.37-0.62,0.6-1.29,0.7-1.99l2.86-23.59c0.04-0.37,0.11-0.62,0.21-0.75c0.09-0.13,0.3-0.2,0.6-0.2
				c0.09,0,0.18,0,0.26,0c0.1,0,0.2,0,0.31,0c0.1,0,0.2,0,0.31,0c0.53,0,1-0.13,1.41-0.38c0.41-0.26,0.66-0.68,0.75-1.29
				c0.03-0.18,0.06-0.36,0.09-0.55c0.03-0.18,0.05-0.34,0.07-0.51c0.01-0.2-0.03-0.55-0.12-1.03C87.18,43.79,87.06,43.3,86.92,42.79
				z M85.97,42.37l-0.15,1.34c-0.1,0.6-0.37,0.99-0.8,1.16c-0.43,0.18-0.88,0.26-1.33,0.26h-0.31c-0.15-0.01-0.29-0.02-0.42-0.02
				c-0.26,0-0.48,0.08-0.65,0.24c-0.17,0.16-0.28,0.48-0.34,0.97l-2.88,23.59c-0.19,1.13-0.63,2.05-1.32,2.77
				c-0.69,0.72-1.53,1.08-2.53,1.08c-0.07,0-0.15,0-0.22,0c-1.04-0.09-1.8-0.43-2.28-1.03c-0.5-0.6-1.38-1.96-2.66-4.09l-6.35-10.92
				c-0.86-1.57-1.28-2.48-1.25-2.75l-1.56,12.7c-0.09,0.41-0.01,0.77,0.22,1.08c0.23,0.21,0.5,0.31,0.79,0.31c0.09,0,0.18,0,0.29,0
				h0.29c0.4,0,0.71,0.19,0.94,0.58c0.23,0.39,0.32,0.89,0.26,1.5c-0.09,0.6-0.3,1.11-0.63,1.53C62.76,73.09,62.4,73.3,62,73.3
				h-9.09c-0.4,0-0.71-0.21-0.94-0.63c-0.23-0.42-0.32-0.93-0.24-1.53c0.07-0.62,0.27-1.12,0.6-1.5c0.33-0.39,0.69-0.58,1.09-0.58
				c0.41,0,0.81-0.08,1.2-0.25c0.39-0.17,0.63-0.5,0.71-1l2.59-21.09c-0.07-0.45-0.26-0.82-0.57-1.11
				c-0.31-0.29-0.68-0.43-1.12-0.43c-0.38,0-0.8,0.13-1.25,0.4c-0.45,0.26-0.72,0.6-0.81,1.01c-0.01,0.16,0.02,0.31,0.11,0.44
				c0.1,0.13,0.31,0.45,0.64,0.97c0.23,0.4,0.32,0.87,0.26,1.43c-0.03,0.16-0.07,0.33-0.11,0.51c-0.29,1.46-1.38,2.2-3.27,2.2
				c-0.7,0-1.28-0.21-1.74-0.63c-0.45-0.42-0.78-0.93-0.99-1.55c-0.21-0.62-0.26-1.25-0.18-1.91v-0.02c0-0.04,0-0.08,0-0.11
				c0.13-1,0.54-2.04,1.23-3.12c0.7-1.11,1.69-2.06,2.97-2.86c1.23-0.76,2.74-1.14,4.53-1.14c0.06,0,0.11,0,0.15,0l4.53-0.04h0.4
				c0.12-0.01,0.23-0.02,0.33-0.02c0.41,0,0.8,0.07,1.16,0.22c0.22,0.1,0.42,0.26,0.6,0.47c0.18,0.21,0.34,0.44,0.47,0.67l0.18,0.29
				c1.98,3.09,3.73,6.32,5.25,9.69c0.92,2.02,1.95,3.98,3.08,5.87c0.25,0.42,0.5,0.64,0.75,0.64c0.35,0,0.6-0.43,0.75-1.3
				l1.34-10.94c0.04-0.41,0-0.7-0.12-0.88c-0.12-0.18-0.31-0.28-0.55-0.32c-0.24-0.04-0.5-0.05-0.78-0.05
				c-0.26,0-0.52-0.02-0.78-0.05c-0.26-0.04-0.48-0.14-0.67-0.3c-0.23-0.23-0.37-0.53-0.4-0.9c-0.03-0.26-0.02-0.53,0.02-0.81
				c0.04-0.48,0.2-0.92,0.46-1.32c0.26-0.4,0.65-0.67,1.16-0.83c0.26-0.07,0.53-0.11,0.79-0.11c0.13,0,0.26,0.01,0.37,0.02
				c0.23,0.01,0.71,0.03,1.42,0.03c0.71,0.01,1.49,0.01,2.34,0.01c0.76,0,1.51,0,2.24-0.01c0.73-0.01,1.57-0.01,2.5-0.01
				c0.66,0,1.07,0.15,1.23,0.46C86,41.55,86.04,41.93,85.97,42.37z"/>
		</g>
		<g>
			<path class="st0" d="M71.08,67.21c-0.58-0.59-1.26-0.89-2.04-0.89c-0.81,0-1.6,0.31-2.34,0.94c-0.46,0.51-0.83,1.08-1.12,1.71
				c-0.25,0.53-0.56,1.02-0.92,1.48c-0.46,0.59-0.96,1.01-1.51,1.26c-0.55,0.25-1.29,0.37-2.23,0.37H60.9
				c-0.36,0-0.92-0.06-1.69-0.18c-0.77-0.12-1.7-0.48-2.79-1.09c-1.09-0.61-2.28-1.61-3.58-3c-1.3-1.39-2.66-3.33-4.09-5.83
				c-1.54-2.87-2.8-5.62-3.77-8.27c-0.51-1.36-1-2.71-1.46-4.05c-0.47-1.34-0.83-2.46-1.08-3.36c-0.44-1.61-0.68-2.47-0.71-2.57
				V43.7c0.02,0,0.03-0.01,0.05-0.03c0.08-0.03,0.31-0.13,0.66-0.28c0.68-0.27,1.53-0.78,2.56-1.51c1.03-0.74,1.99-1.76,2.89-3.05
				c0.9-1.3,1.49-2.92,1.78-4.87c0.2-1.87,0-3.55-0.62-5.06c-0.62-1.51-1.56-2.72-2.84-3.63c-1.27-0.91-2.75-1.36-4.43-1.36H24.73
				c-0.05,0.02-0.14,0.03-0.28,0.03c-0.09,0-0.19,0.01-0.31,0.03h-0.13c-0.81,0.03-1.84,0.34-3.08,0.92
				c-1.24,0.58-2.38,1.65-3.41,3.23c-0.73,1.34-1.15,2.74-1.27,4.2v0.03c-0.09,0.75-0.02,1.48,0.2,2.2
				c0.22,0.72,0.59,1.33,1.11,1.82c0.52,0.49,1.18,0.74,2,0.74c0.85,0,1.67-0.23,2.46-0.69c0.79-0.46,1.33-1.11,1.62-1.96
				c0.03-0.17,0.07-0.34,0.1-0.51c0.07-0.63-0.07-1.19-0.41-1.68c-0.22-0.31-0.4-0.55-0.53-0.74c-0.12-0.17-0.21-0.3-0.28-0.39
				c-0.07-0.09-0.11-0.18-0.13-0.25c-0.02-0.08-0.03-0.16-0.03-0.24v-0.03c0.03-0.17,0.11-0.33,0.23-0.5
				c0.12-0.16,0.25-0.29,0.41-0.39c0.88-0.54,1.82-0.81,2.8-0.81h0.97l-3.16,25.73c-0.09,0.78-0.28,1.3-0.6,1.55
				c-0.31,0.25-0.86,0.38-1.64,0.38c-0.46,0-0.88,0.24-1.26,0.73c-0.38,0.48-0.62,1.07-0.73,1.77c-0.07,0.7,0.03,1.29,0.29,1.77
				c0.26,0.48,0.62,0.73,1.08,0.73h12.27c0.46,0,0.88-0.24,1.26-0.73c0.38-0.48,0.62-1.07,0.73-1.77c0.07-0.7-0.03-1.29-0.29-1.77
				c-0.26-0.48-0.62-0.73-1.08-0.73h-0.2c-0.34,0-0.64-0.01-0.9-0.03c-0.26-0.02-0.45-0.07-0.55-0.15c-0.15-0.15-0.22-0.35-0.2-0.59
				c-0.02-0.24,0.16-1.97,0.53-5.19c0.29-2.6,0.46-4.2,0.51-4.81c0.02-0.15,0.03-0.24,0.03-0.25c0.02-0.07,0.04-0.13,0.08-0.18
				c0.03-0.05,0.08-0.08,0.13-0.08c0.08,0,0.17,0.1,0.25,0.31c0.98,3.7,2.19,7.47,3.61,11.32c1.43,3.85,3.16,7.35,5.22,10.51
				c1.03,1.59,2.37,3.09,4.02,4.49c1.65,1.4,3.53,2.54,5.65,3.44c2.12,0.89,4.42,1.34,6.9,1.34c1.32,0,2.72-0.15,4.2-0.46
				c1.48-0.31,2.88-0.8,4.21-1.49c1.33-0.69,2.47-1.6,3.42-2.74c0.54-0.71,0.86-1.47,0.94-2.26c0.1-0.81,0.01-1.6-0.28-2.37
				C71.17,67.31,71.13,67.26,71.08,67.21z M41.05,34.26c-0.15,1.22-0.75,2.24-1.79,3.05c-1.04,0.81-2.5,1.22-4.36,1.22
				c-0.29,0-0.53-0.05-0.71-0.15c-0.19-0.1-0.28-0.23-0.28-0.38l0.97-7.71c0.02-0.15,0.13-0.28,0.34-0.38
				c0.21-0.1,0.46-0.15,0.75-0.15c1.26,0,2.27,0.21,3.05,0.64c0.78,0.42,1.34,0.98,1.67,1.65C41.01,32.72,41.13,33.46,41.05,34.26z"
				/>
			<path class="st1" d="M39.01,30.39c-0.78-0.42-1.8-0.64-3.05-0.64c-0.29,0-0.54,0.05-0.75,0.15c-0.21,0.1-0.33,0.23-0.34,0.38
				L33.9,38c0,0.15,0.09,0.28,0.28,0.38c0.19,0.1,0.42,0.15,0.71,0.15c1.87,0,3.32-0.41,4.36-1.22c1.04-0.81,1.64-1.83,1.79-3.05
				c0.08-0.8-0.04-1.54-0.37-2.21C40.35,31.36,39.79,30.81,39.01,30.39z M40.74,34.26c-0.2,1.26-0.77,2.2-1.69,2.82
				c-0.93,0.63-1.96,0.99-3.12,1.09l0.61-4.84l0.18-0.1c0.1-0.05,0.21-0.08,0.32-0.09c0.11-0.01,0.19-0.01,0.24-0.01
				c0.63,0,1.24,0.07,1.84,0.22c0.6,0.14,1.14,0.39,1.62,0.75V34.26z"/>
			<path class="st1" d="M71.74,67.62c-0.49-1.07-1.39-1.6-2.7-1.6c-0.97,0-1.73,0.27-2.29,0.8c-0.56,0.53-1.04,1.22-1.43,2.05
				c-0.53,1.05-1.1,1.8-1.72,2.24c-0.62,0.44-1.5,0.66-2.63,0.66c-1.66,0-3.19-0.44-4.58-1.32c-1.39-0.88-2.66-2-3.79-3.36
				c-1.14-1.36-2.15-2.8-3.03-4.33c-0.88-1.53-1.64-2.97-2.26-4.33c-1.1-2.7-2.06-5.46-2.88-8.3l-0.99-3.21l0.46-0.18
				c0.59-0.25,1.15-0.56,1.68-0.92c0.07-0.05,0.14-0.09,0.2-0.13c3.22-2.12,5.07-5.01,5.55-8.68c0.22-1.99-0.03-3.82-0.74-5.5
				l-1.37-3.08c-0.63-1.44-1.56-2.61-2.81-3.51c-1.25-0.9-2.77-1.35-4.57-1.35H24.79c-1.31,0-2.67,0.35-4.1,1.04
				c-2.36,1.36-3.84,3.34-4.45,5.96c-0.12,0.56-0.21,1.13-0.28,1.71c-0.12,0.98,0.02,1.94,0.41,2.88l1.35,3.08
				c0.29,0.64,0.7,1.18,1.22,1.59c0.53,0.42,1.18,0.62,1.96,0.62c1.02,0,1.98-0.3,2.88-0.89c0.9-0.59,1.43-1.46,1.6-2.6
				c0.05-0.54-0.01-1-0.18-1.37l-0.99-2.26c0.51-0.53,1.13-0.85,1.86-0.97l-2.75,22.24c-0.07,0.7-0.23,1.14-0.5,1.34
				c-0.26,0.2-0.73,0.29-1.41,0.29c-0.44,0-0.83,0.16-1.16,0.47c-0.33,0.31-0.59,0.68-0.79,1.11c-0.2,0.42-0.32,0.83-0.37,1.22
				c-0.03,0.25-0.03,0.54,0,0.87c0.03,0.32,0.11,0.64,0.23,0.94l1.37,3.08c0.12,0.29,0.29,0.53,0.52,0.71
				c0.23,0.19,0.52,0.28,0.88,0.28h12.27c0.44,0,0.83-0.15,1.16-0.46c0.33-0.31,0.59-0.67,0.79-1.11c0.19-0.43,0.32-0.84,0.37-1.23
				c0.1-0.68,0-1.32-0.31-1.93l-1.37-3.08c-0.12-0.22-0.28-0.42-0.48-0.6c-0.2-0.18-0.48-0.27-0.84-0.27
				c0.05-0.42,0.1-0.86,0.15-1.3c0.05-0.42,0.1-0.85,0.15-1.27l0.33-3.44c0.78,2.65,1.85,5.66,3.21,9.03
				c0.17,0.34,0.32,0.68,0.46,1.02l1.35,3.08c1.44,3.46,3.19,6.5,5.25,9.11c2.06,2.61,4.87,4.69,8.44,6.23c2.2,0.9,4.54,1.35,7,1.35
				c1.31,0,2.73-0.16,4.26-0.47c1.54-0.31,3-0.82,4.39-1.53c1.39-0.7,2.55-1.64,3.49-2.81c0.64-0.85,1.03-1.76,1.15-2.75
				c0.08-0.68,0.02-1.27-0.2-1.78L71.74,67.62z M71.48,69.73c-0.09,0.8-0.4,1.55-0.94,2.26c-0.95,1.14-2.09,2.05-3.42,2.74
				c-1.33,0.69-2.74,1.18-4.21,1.49c-1.48,0.31-2.88,0.46-4.2,0.46c-2.48,0-4.78-0.45-6.9-1.34c-2.12-0.89-4-2.04-5.65-3.44
				c-1.65-1.4-2.99-2.9-4.02-4.49c-2.05-3.16-3.79-6.66-5.22-10.51c-1.43-3.85-2.63-7.63-3.61-11.32c-0.09-0.2-0.17-0.31-0.25-0.31
				c-0.05,0-0.09,0.03-0.13,0.08c-0.03,0.05-0.06,0.11-0.08,0.18c0,0.02-0.01,0.1-0.03,0.25c-0.05,0.61-0.22,2.21-0.51,4.81
				c-0.37,3.22-0.55,4.95-0.53,5.19c-0.02,0.24,0.05,0.43,0.2,0.59c0.1,0.08,0.28,0.14,0.55,0.15c0.26,0.02,0.56,0.03,0.9,0.03h0.2
				c0.46,0,0.82,0.24,1.08,0.73c0.26,0.48,0.36,1.07,0.29,1.77c-0.1,0.7-0.34,1.29-0.73,1.77c-0.38,0.48-0.8,0.73-1.26,0.73H20.76
				c-0.46,0-0.82-0.24-1.08-0.73c-0.26-0.48-0.36-1.07-0.29-1.77c0.1-0.7,0.34-1.29,0.73-1.77c0.38-0.48,0.8-0.73,1.26-0.73
				c0.78,0,1.33-0.13,1.64-0.38c0.31-0.25,0.51-0.77,0.6-1.55l3.16-25.73H25.8c-0.98,0-1.92,0.27-2.8,0.81
				c-0.15,0.1-0.29,0.23-0.41,0.39c-0.12,0.16-0.2,0.33-0.23,0.5v0.03c0,0.08,0.01,0.17,0.03,0.24c0.02,0.08,0.06,0.16,0.13,0.25
				c0.07,0.09,0.16,0.22,0.28,0.39c0.14,0.19,0.31,0.43,0.53,0.74c0.34,0.49,0.47,1.05,0.41,1.68c-0.03,0.17-0.07,0.34-0.1,0.51
				c-0.29,0.85-0.83,1.5-1.62,1.96c-0.79,0.46-1.61,0.69-2.46,0.69c-0.81,0-1.48-0.25-2-0.74c-0.52-0.49-0.89-1.1-1.11-1.82
				c-0.22-0.72-0.29-1.45-0.2-2.2V32.3c0.12-1.46,0.54-2.86,1.27-4.2c1.03-1.58,2.17-2.65,3.41-3.23c1.24-0.58,2.26-0.88,3.08-0.92
				h0.13c0.12-0.02,0.22-0.03,0.31-0.03c0.14,0,0.23-0.01,0.28-0.03h17.05c1.68,0,3.16,0.45,4.43,1.36
				c1.27,0.91,2.22,2.12,2.84,3.63c0.62,1.51,0.83,3.2,0.62,5.06c-0.29,1.95-0.88,3.58-1.78,4.87c-0.9,1.3-1.86,2.32-2.89,3.05
				c-1.03,0.74-1.88,1.24-2.56,1.51c-0.36,0.15-0.58,0.25-0.66,0.28c-0.02,0.02-0.03,0.03-0.05,0.03v0.03
				c0.03,0.1,0.27,0.96,0.71,2.57c0.25,0.9,0.61,2.02,1.08,3.36c0.47,1.34,0.95,2.69,1.46,4.05c0.97,2.65,2.22,5.4,3.77,8.27
				c1.43,2.49,2.79,4.44,4.09,5.83c1.3,1.39,2.49,2.39,3.58,3c1.09,0.61,2.01,0.98,2.79,1.09c0.77,0.12,1.34,0.18,1.69,0.18h0.03
				c0.93,0,1.68-0.12,2.23-0.37c0.55-0.25,1.06-0.67,1.51-1.26c0.36-0.46,0.66-0.95,0.92-1.48c0.29-0.63,0.66-1.2,1.12-1.71
				c0.75-0.63,1.53-0.94,2.34-0.94c0.78,0,1.46,0.3,2.04,0.89c0.05,0.05,0.09,0.1,0.13,0.15C71.49,68.13,71.59,68.92,71.48,69.73z"
				/>
		</g>
	</g>
</g>
</svg>
