<?xml version="1.0" encoding="utf-8"?>
<!-- Generator: Adobe Illustrator 25.3.1, SVG Export Plug-In . SVG Version: 6.00 Build 0)  -->
<svg version="1.1" id="Layer_1" xmlns="http://www.w3.org/2000/svg" xmlns:xlink="http://www.w3.org/1999/xlink" x="0px" y="0px"
	 viewBox="0 0 250 100" style="enable-background:new 0 0 250 100;" xml:space="preserve">
<style type="text/css">
	.st0{fill:#BDDFD5;}
	.st1{fill:#117755;}
</style>
<g>
	<path class="st0" d="M184.81,6.59c-1.71,0-3.23,0.01-4.57,0.02c-1.34,0.01-2.7,0.02-4.09,0.02c-1.55,0-2.97-0.01-4.27-0.02
		c-1.29-0.01-2.16-0.03-2.58-0.06c-0.21-0.03-0.44-0.04-0.68-0.04c-0.48,0-0.96,0.07-1.44,0.2c-0.94,0.29-1.64,0.8-2.12,1.52
		s-0.76,1.52-0.84,2.4c-0.08,0.51-0.09,1-0.04,1.48c0.05,0.67,0.29,1.22,0.72,1.64c0.35,0.29,0.75,0.47,1.22,0.54
		c0.47,0.07,0.94,0.1,1.42,0.1c0.51,0,0.98,0.03,1.42,0.1c0.44,0.07,0.77,0.26,1,0.58c0.23,0.32,0.3,0.85,0.22,1.6l-2.44,19.95
		c-0.27,1.58-0.72,2.36-1.36,2.36c-0.46,0-0.91-0.39-1.36-1.16c-2.06-3.44-3.93-7.01-5.61-10.69c-2.78-6.14-5.97-12.03-9.57-17.66
		l-0.32-0.52c-0.24-0.43-0.53-0.83-0.86-1.22c-0.33-0.39-0.7-0.67-1.1-0.86c-0.67-0.27-1.38-0.4-2.12-0.4
		c-0.19,0-0.39,0.01-0.6,0.04h-0.72l-8.25,0.08c-0.08,0-0.17,0-0.28,0c-3.26,0-6.01,0.69-8.25,2.08c-2.32,1.44-4.13,3.18-5.41,5.21
		c-1.26,1.98-2,3.87-2.24,5.69c0,0.05,0,0.12,0,0.2v0.04c-0.16,1.2-0.05,2.36,0.32,3.48c0.37,1.12,0.97,2.06,1.8,2.82
		c0.83,0.76,1.88,1.14,3.16,1.14c3.44,0,5.43-1.33,5.97-4.01c0.08-0.32,0.15-0.63,0.2-0.92c0.11-1.01-0.05-1.88-0.48-2.6
		c-0.59-0.93-0.98-1.52-1.16-1.76c-0.16-0.24-0.23-0.51-0.2-0.8c0.16-0.75,0.65-1.36,1.48-1.84c0.83-0.48,1.59-0.72,2.28-0.72
		c0.8,0,1.48,0.26,2.04,0.78s0.91,1.2,1.04,2.02l-4.73,38.45c-0.16,0.91-0.59,1.52-1.3,1.82c-0.71,0.31-1.44,0.46-2.18,0.46
		c-0.72,0-1.38,0.35-1.98,1.06c-0.6,0.71-0.97,1.62-1.1,2.74c-0.13,1.1,0.01,2.02,0.44,2.78c0.43,0.76,1,1.14,1.72,1.14h16.58
		c0.72,0,1.38-0.38,1.98-1.14c0.6-0.76,0.98-1.69,1.14-2.78c0.11-1.12-0.05-2.04-0.48-2.74c-0.43-0.71-1-1.06-1.72-1.06H144
		c-0.19,0-0.36,0-0.52,0c-0.54,0-1.02-0.19-1.44-0.56c-0.43-0.56-0.56-1.21-0.4-1.96l2.84-23.15c-0.05,0.48,0.71,2.15,2.28,5.01
		l11.58,19.91c2.32,3.87,3.94,6.36,4.85,7.45c0.88,1.09,2.27,1.72,4.17,1.88c0.13,0,0.27,0,0.4,0c1.82,0,3.35-0.65,4.61-1.96
		c1.25-1.31,2.06-2.99,2.4-5.05l5.25-43.02c0.11-0.88,0.31-1.47,0.62-1.76c0.31-0.29,0.7-0.44,1.18-0.44c0.24,0,0.49,0.01,0.76,0.04
		h0.56c0.83,0,1.64-0.16,2.42-0.48c0.79-0.32,1.27-1.03,1.46-2.12l0.28-2.44c0.13-0.8,0.05-1.48-0.24-2.04
		C186.76,6.87,186.01,6.59,184.81,6.59z"/>
	<path class="st0" d="M113.38,6.65c-0.71-0.33-1.5-0.5-2.38-0.5c-0.16,0-0.31,0-0.44,0c-0.32,0-0.66,0.01-1,0.04
		c-1.84,0.16-3.72,0.24-5.65,0.24c-0.27,0-0.55,0-0.84,0c-0.27,0-0.54,0-0.8,0L74.59,6.47c-0.08,0.03-0.24,0.04-0.48,0.04
		c-0.13,0-0.29,0.01-0.48,0.04h-0.2c-1.12,0.05-2.54,0.43-4.26,1.14c-1.72,0.71-3.35,1.99-4.89,3.85c-1.54,1.86-2.56,4.55-3.06,8.07
		v0.08c-0.13,1.18-0.02,2.32,0.34,3.44c0.36,1.12,0.95,2.07,1.76,2.84c0.81,0.77,1.85,1.16,3.1,1.16c1.33,0,2.59-0.45,3.76-1.36
		c1.17-0.91,1.95-1.99,2.32-3.24c0.08-0.27,0.13-0.52,0.16-0.76c0.11-0.91-0.07-1.7-0.52-2.36c-0.24-0.35-0.44-0.64-0.6-0.88
		c-0.21-0.27-0.37-0.49-0.48-0.66c-0.11-0.17-0.17-0.32-0.2-0.44c-0.03-0.12-0.04-0.26-0.04-0.42c0.19-0.72,0.74-1.32,1.66-1.8
		c0.92-0.48,1.68-0.72,2.26-0.72c0.93,0,1.63,0.33,2.08,0.98c0.45,0.65,0.63,1.45,0.52,2.38L72.7,55.58
		c-0.16,0.91-0.59,1.52-1.28,1.82c-0.7,0.31-1.42,0.46-2.16,0.46c-0.72,0-1.38,0.38-1.98,1.14c-0.6,0.76-0.98,1.69-1.14,2.78
		c-0.11,1.1,0.05,2.02,0.46,2.78c0.41,0.76,0.98,1.14,1.7,1.14h34.77c0.67,0,1.25-0.19,1.76-0.56c0.51-0.37,0.96-0.84,1.36-1.4
		c0.29-0.43,0.72-1.07,1.28-1.92c0.16-0.27,0.33-0.55,0.52-0.84c0.05-0.05,0.09-0.09,0.12-0.12c0.75-1.15,1.48-2.36,2.2-3.62
		c0.72-1.27,1.16-2.45,1.32-3.54c0.21-1.25-0.27-2.16-1.44-2.72c-0.29-0.11-0.58-0.16-0.84-0.16c-0.67,0-1.28,0.23-1.82,0.7
		c-0.55,0.47-1.02,1.01-1.42,1.62l-0.44,0.48c-1.34,1.55-2.8,2.64-4.41,3.28c-1.55,0.64-4.47,0.96-8.77,0.96c-0.24,0-0.5,0-0.76,0
		c-0.96,0-1.92-0.05-2.88-0.14c-0.96-0.09-1.74-0.38-2.32-0.86c-0.59-0.48-0.82-1.28-0.68-2.4l1.76-14.5
		c0.72-0.08,1.41-0.12,2.08-0.12c0.08,0,0.16,0,0.24,0c1.07,0,2.07,0.14,3,0.42c0.93,0.28,1.75,0.74,2.44,1.38
		c0.24,0.24,0.44,0.51,0.6,0.8c0.27,0.43,0.6,0.8,1,1.12c0.56,0.43,1.19,0.64,1.88,0.64c0.29,0,0.61-0.04,0.96-0.12
		c1.04-0.32,1.84-0.95,2.4-1.88c0.32-0.72,0.72-2.87,1.2-6.45c0.11-0.88,0.21-1.68,0.32-2.4c0.24-2.11,0.35-3.39,0.32-3.85
		c-0.05-1.33-0.71-2.18-1.96-2.52c-0.19-0.03-0.37-0.04-0.56-0.04c-0.7,0-1.34,0.25-1.92,0.76c-0.43,0.48-0.75,1.04-0.96,1.68
		c-0.29,0.99-0.79,1.69-1.48,2.1c-0.7,0.41-1.52,0.66-2.48,0.74c-1.5,0.16-3,0.24-4.53,0.24c-0.51,0-1.03-0.01-1.56-0.04h-0.08
		l1.48-12.06c0.03-0.32,0.05-0.65,0.08-1c0.11-1.57,0.72-2.91,1.84-4.01c1.31-0.91,2.91-1.36,4.81-1.36c2.62-0.03,4.98,0.31,7.09,1
		c2.11,0.69,3.83,2.2,5.17,4.53c0.4,0.91,1.03,1.63,1.88,2.16c0.4,0.19,0.8,0.28,1.2,0.28c0.61,0,1.17-0.21,1.68-0.64
		c0.43-0.51,0.68-1.08,0.76-1.72c0.05-0.67,0.03-1.35-0.08-2.04c0-0.03-0.01-0.05-0.04-0.08c-0.16-1.44-0.15-2.9,0.04-4.37
		c0.05-0.48,0.13-0.97,0.24-1.48c0-0.05,0.01-0.12,0.02-0.2c0.01-0.08,0.03-0.15,0.06-0.2c0.13-0.35,0.23-0.68,0.28-1
		c0.05-0.69,0-1.35-0.16-1.96C114.58,7.53,114.08,6.98,113.38,6.65z"/>
	<path class="st0" d="M89.04,74.68c-0.91-0.93-1.98-1.4-3.2-1.4c-1.28,0-2.51,0.49-3.68,1.48c-0.72,0.8-1.31,1.7-1.76,2.68
		c-0.4,0.83-0.88,1.6-1.44,2.32c-0.72,0.93-1.52,1.59-2.38,1.98c-0.87,0.39-2.04,0.58-3.5,0.58h-0.04c-0.56,0-1.45-0.09-2.66-0.28
		c-1.22-0.19-2.68-0.76-4.39-1.72c-1.71-0.96-3.59-2.54-5.63-4.73c-2.04-2.19-4.19-5.25-6.43-9.17c-2.43-4.51-4.41-8.85-5.93-13.02
		c-0.8-2.14-1.57-4.26-2.3-6.37c-0.74-2.11-1.3-3.87-1.7-5.29c-0.7-2.54-1.07-3.89-1.12-4.05v-0.04c0.03,0,0.05-0.01,0.08-0.04
		c0.13-0.05,0.48-0.2,1.04-0.44c1.07-0.43,2.41-1.22,4.03-2.38c1.61-1.16,3.13-2.76,4.55-4.81c1.41-2.04,2.35-4.6,2.8-7.67
		c0.32-2.94-0.01-5.59-0.98-7.97c-0.97-2.38-2.46-4.28-4.47-5.71c-2-1.43-4.33-2.14-6.97-2.14H16.11c-0.08,0.03-0.23,0.04-0.44,0.04
		c-0.13,0-0.29,0.01-0.48,0.04h-0.2c-1.28,0.05-2.9,0.53-4.85,1.44c-1.95,0.91-3.74,2.6-5.37,5.09c-1.15,2.11-1.82,4.31-2,6.61v0.04
		c-0.13,1.18-0.03,2.33,0.32,3.46c0.35,1.14,0.93,2.09,1.74,2.86c0.81,0.77,1.86,1.16,3.14,1.16c1.33,0,2.62-0.36,3.86-1.08
		c1.24-0.72,2.09-1.75,2.54-3.08c0.05-0.27,0.11-0.53,0.16-0.8c0.11-0.99-0.11-1.87-0.64-2.64c-0.35-0.48-0.63-0.87-0.84-1.16
		c-0.19-0.27-0.33-0.47-0.44-0.62c-0.11-0.15-0.17-0.28-0.2-0.4c-0.03-0.12-0.04-0.25-0.04-0.38v-0.04
		c0.05-0.27,0.17-0.53,0.36-0.78c0.19-0.25,0.4-0.46,0.64-0.62c1.39-0.85,2.86-1.28,4.41-1.28h1.52l-4.97,40.49
		c-0.13,1.23-0.45,2.04-0.94,2.44c-0.5,0.4-1.36,0.6-2.58,0.6c-0.72,0-1.38,0.38-1.98,1.14c-0.6,0.76-0.98,1.69-1.14,2.78
		c-0.11,1.1,0.05,2.02,0.46,2.78c0.41,0.76,0.98,1.14,1.7,1.14h19.31c0.72,0,1.38-0.38,1.98-1.14c0.6-0.76,0.98-1.69,1.14-2.78
		c0.11-1.09-0.05-2.02-0.46-2.78c-0.41-0.76-0.98-1.14-1.7-1.14h-0.32c-0.54,0-1.01-0.01-1.42-0.04c-0.41-0.03-0.7-0.11-0.86-0.24
		c-0.24-0.24-0.35-0.55-0.32-0.92c-0.03-0.37,0.25-3.1,0.84-8.17c0.45-4.09,0.72-6.61,0.8-7.57c0.03-0.24,0.04-0.37,0.04-0.4
		c0.03-0.11,0.07-0.2,0.12-0.28c0.05-0.08,0.12-0.12,0.2-0.12c0.13,0,0.27,0.16,0.4,0.48c1.55,5.82,3.44,11.76,5.69,17.82
		c2.24,6.06,4.98,11.58,8.21,16.54c1.63,2.51,3.74,4.87,6.33,7.07c2.59,2.2,5.55,4.01,8.89,5.41c3.34,1.4,6.95,2.1,10.85,2.1
		c2.08,0,4.29-0.24,6.61-0.72s4.53-1.26,6.63-2.34c2.1-1.08,3.89-2.52,5.39-4.31c0.85-1.12,1.35-2.31,1.48-3.56
		c0.16-1.28,0.01-2.52-0.44-3.72C89.19,74.84,89.12,74.76,89.04,74.68z M41.78,22.81c-0.24,1.92-1.18,3.52-2.82,4.81
		c-1.64,1.28-3.93,1.92-6.87,1.92c-0.46,0-0.83-0.08-1.12-0.24c-0.29-0.16-0.44-0.36-0.44-0.6l1.52-12.14
		c0.03-0.24,0.21-0.44,0.54-0.6c0.33-0.16,0.73-0.24,1.18-0.24c1.98,0,3.58,0.33,4.81,1c1.23,0.67,2.1,1.54,2.62,2.6
		C41.72,20.4,41.92,21.56,41.78,22.81z"/>
	<path class="st0" d="M242.01,6.51h-15.26c-2.32,0-3.66,0.87-4.01,2.6c-0.11,0.59-0.19,1.14-0.24,1.64c-0.13,0.99-0.13,1.79,0,2.4
		c0.19,0.96,1.23,1.44,3.12,1.44c1.87,0,2.68,0.91,2.44,2.72l-0.76,6.25c-1.26,10.04-2,16.03-2.24,17.98
		c-0.43,3.39-1,6.06-1.72,7.99c-0.72,1.94-1.54,3.34-2.44,4.23c-0.91,0.88-1.84,1.42-2.8,1.62c-0.96,0.2-1.88,0.3-2.76,0.3
		c-0.96,0-1.88-0.14-2.76-0.42c-0.88-0.28-1.68-0.75-2.4-1.42c-1.34-1.52-2.04-3.42-2.12-5.69c-0.08-2.03,0-4.02,0.24-5.97
		c0.03-0.21,0.05-0.43,0.08-0.64l0.08-0.76l2.08-17.22l0.8-6.33c0.35-1.82,1.43-2.72,3.24-2.72c1.79,0,2.91-0.48,3.36-1.44
		c0.29-0.61,0.49-1.41,0.6-2.4c0.08-0.51,0.13-1.05,0.16-1.64c0.05-1.74-1.08-2.6-3.4-2.6h-19.19c-2.32,0-3.66,0.87-4.01,2.6
		c-0.13,0.59-0.23,1.14-0.28,1.64c-0.13,0.99-0.13,1.79,0,2.4c0.19,0.96,1.19,1.44,3,1.44c1.79,0,2.66,0.91,2.6,2.72l-0.84,6.65
		l-2.36,19.67c-0.24,1.71-0.38,3.6-0.42,5.69c-0.04,2.08,0.17,4.19,0.64,6.31c0.47,2.12,1.36,4.07,2.66,5.85
		c1.31,1.78,3.19,3.22,5.65,4.33c2.46,1.11,5.69,1.66,9.69,1.66c3.52,0,6.51-0.45,8.97-1.34c2.46-0.89,4.49-2.08,6.09-3.54
		c1.6-1.47,2.86-3.1,3.78-4.89c0.92-1.79,1.62-3.6,2.08-5.43c0.47-1.83,0.78-3.54,0.94-5.15c0.13-0.96,0.23-1.83,0.28-2.6l0.2-1.52
		l2.28-19.35l0.76-6.25c0.21-1.82,1.31-2.72,3.28-2.72c1.95,0,3.14-0.48,3.56-1.44c0.29-0.61,0.49-1.41,0.6-2.4
		c0.05-0.51,0.09-1.05,0.12-1.64C245.47,7.38,244.33,6.51,242.01,6.51z"/>
	<path class="st1" d="M38.58,16.72c-1.23-0.67-2.83-1-4.81-1c-0.46,0-0.85,0.08-1.18,0.24c-0.33,0.16-0.51,0.36-0.54,0.6L30.53,28.7
		c0,0.24,0.15,0.44,0.44,0.6c0.29,0.16,0.67,0.24,1.12,0.24c2.94,0,5.23-0.64,6.87-1.92c1.64-1.28,2.58-2.88,2.82-4.81
		c0.13-1.25-0.06-2.42-0.58-3.48C40.68,18.26,39.81,17.39,38.58,16.72z M41.3,22.81c-0.32,1.98-1.21,3.46-2.66,4.45
		c-1.46,0.99-3.09,1.56-4.91,1.72l0.96-7.61l0.28-0.16c0.16-0.08,0.33-0.13,0.5-0.14c0.17-0.01,0.3-0.02,0.38-0.02
		c0.99,0,1.96,0.11,2.9,0.34c0.95,0.23,1.8,0.62,2.54,1.18V22.81z"/>
	<path class="st1" d="M90.09,75.32c-0.78-1.68-2.19-2.52-4.25-2.52c-1.52,0-2.72,0.42-3.6,1.26c-0.88,0.84-1.63,1.92-2.24,3.22
		c-0.83,1.65-1.73,2.83-2.7,3.52c-0.97,0.69-2.36,1.04-4.14,1.04c-2.62,0-5.02-0.69-7.21-2.08c-2.19-1.39-4.18-3.15-5.97-5.29
		c-1.79-2.14-3.38-4.41-4.77-6.81c-1.39-2.4-2.58-4.67-3.56-6.81c-1.74-4.25-3.24-8.6-4.53-13.06l-1.56-5.05l0.72-0.28
		c0.93-0.4,1.82-0.88,2.64-1.44c0.11-0.08,0.21-0.15,0.32-0.2c5.07-3.34,7.98-7.89,8.73-13.66c0.35-3.12-0.04-6.01-1.16-8.65
		l-2.16-4.85c-0.99-2.27-2.46-4.11-4.43-5.53c-1.96-1.41-4.36-2.12-7.19-2.12H16.19c-2.06,0-4.21,0.55-6.45,1.64
		c-3.71,2.14-6.05,5.26-7.01,9.37c-0.19,0.88-0.33,1.78-0.44,2.68c-0.19,1.55,0.03,3.06,0.64,4.53l2.12,4.85
		c0.45,1.01,1.09,1.85,1.92,2.5c0.83,0.65,1.86,0.98,3.08,0.98c1.6,0,3.11-0.47,4.53-1.4c1.41-0.93,2.26-2.3,2.52-4.09
		c0.08-0.85-0.01-1.57-0.28-2.16l-1.56-3.56c0.8-0.83,1.78-1.33,2.92-1.52l-4.33,35.01c-0.11,1.1-0.37,1.8-0.78,2.1
		c-0.41,0.31-1.16,0.46-2.22,0.46c-0.7,0-1.3,0.25-1.82,0.74C8.52,58.65,8.1,59.23,7.8,59.9c-0.31,0.67-0.5,1.31-0.58,1.92
		c-0.05,0.4-0.05,0.85,0,1.36c0.05,0.51,0.17,1,0.36,1.48l2.16,4.85c0.19,0.45,0.46,0.83,0.82,1.12c0.36,0.29,0.82,0.44,1.38,0.44
		h19.31c0.69,0,1.3-0.24,1.82-0.72c0.52-0.48,0.94-1.06,1.24-1.74c0.31-0.68,0.5-1.33,0.58-1.94c0.16-1.07,0-2.08-0.48-3.04
		l-2.16-4.85c-0.19-0.35-0.44-0.66-0.76-0.94s-0.76-0.42-1.32-0.42c0.08-0.67,0.16-1.35,0.24-2.04c0.08-0.67,0.16-1.33,0.24-2
		l0.52-5.41c1.23,4.17,2.91,8.91,5.05,14.22c0.27,0.53,0.51,1.07,0.72,1.6l2.12,4.85c2.27,5.45,5.03,10.23,8.27,14.34
		c3.25,4.11,7.67,7.38,13.28,9.81c3.47,1.41,7.14,2.12,11.01,2.12c2.06,0,4.29-0.25,6.71-0.74c2.42-0.49,4.72-1.3,6.91-2.4
		c2.19-1.11,4.02-2.58,5.49-4.43c1.01-1.34,1.61-2.78,1.8-4.33c0.13-1.07,0.03-2-0.32-2.8L90.09,75.32z M89.69,78.65
		c-0.13,1.25-0.63,2.44-1.48,3.56c-1.5,1.79-3.29,3.22-5.39,4.31c-2.1,1.08-4.3,1.86-6.63,2.34s-4.53,0.72-6.61,0.72
		c-3.9,0-7.52-0.7-10.85-2.1c-3.34-1.4-6.3-3.2-8.89-5.41c-2.59-2.2-4.7-4.56-6.33-7.07c-3.23-4.97-5.97-10.48-8.21-16.54
		c-2.24-6.06-4.14-12-5.69-17.82c-0.13-0.32-0.27-0.48-0.4-0.48c-0.08,0-0.15,0.04-0.2,0.12c-0.05,0.08-0.09,0.17-0.12,0.28
		c0,0.03-0.01,0.16-0.04,0.4c-0.08,0.96-0.35,3.48-0.8,7.57c-0.59,5.07-0.87,7.8-0.84,8.17c-0.03,0.37,0.08,0.68,0.32,0.92
		c0.16,0.13,0.45,0.21,0.86,0.24c0.41,0.03,0.89,0.04,1.42,0.04h0.32c0.72,0,1.29,0.38,1.7,1.14c0.41,0.76,0.57,1.69,0.46,2.78
		c-0.16,1.1-0.54,2.02-1.14,2.78c-0.6,0.76-1.26,1.14-1.98,1.14H9.86c-0.72,0-1.29-0.38-1.7-1.14c-0.41-0.76-0.57-1.69-0.46-2.78
		c0.16-1.09,0.54-2.02,1.14-2.78c0.6-0.76,1.26-1.14,1.98-1.14c1.23,0,2.09-0.2,2.58-0.6c0.49-0.4,0.81-1.21,0.94-2.44l4.97-40.49
		h-1.52c-1.55,0-3.02,0.43-4.41,1.28c-0.24,0.16-0.46,0.37-0.64,0.62c-0.19,0.25-0.31,0.51-0.36,0.78v0.04
		c0,0.13,0.01,0.26,0.04,0.38c0.03,0.12,0.09,0.25,0.2,0.4c0.11,0.15,0.25,0.35,0.44,0.62c0.21,0.29,0.49,0.68,0.84,1.16
		c0.53,0.77,0.75,1.66,0.64,2.64c-0.05,0.27-0.11,0.53-0.16,0.8c-0.46,1.34-1.3,2.36-2.54,3.08c-1.24,0.72-2.53,1.08-3.86,1.08
		c-1.28,0-2.33-0.39-3.14-1.16c-0.82-0.77-1.4-1.73-1.74-2.86c-0.35-1.13-0.46-2.29-0.32-3.46v-0.04c0.19-2.3,0.85-4.5,2-6.61
		c1.63-2.48,3.42-4.18,5.37-5.09c1.95-0.91,3.56-1.39,4.85-1.44h0.2c0.19-0.03,0.35-0.04,0.48-0.04c0.21,0,0.36-0.01,0.44-0.04
		h26.84c2.64,0,4.97,0.71,6.97,2.14c2,1.43,3.49,3.33,4.47,5.71c0.98,2.38,1.3,5.03,0.98,7.97c-0.46,3.07-1.39,5.63-2.8,7.67
		c-1.42,2.04-2.93,3.64-4.55,4.81c-1.62,1.16-2.96,1.96-4.03,2.38c-0.56,0.24-0.91,0.39-1.04,0.44c-0.03,0.03-0.05,0.04-0.08,0.04
		v0.04c0.05,0.16,0.43,1.51,1.12,4.05c0.4,1.42,0.97,3.18,1.7,5.29c0.73,2.11,1.5,4.23,2.3,6.37c1.52,4.17,3.5,8.5,5.93,13.02
		c2.24,3.93,4.39,6.98,6.43,9.17c2.04,2.19,3.92,3.76,5.63,4.73c1.71,0.96,3.17,1.53,4.39,1.72c1.21,0.19,2.1,0.28,2.66,0.28h0.04
		c1.47,0,2.64-0.19,3.5-0.58c0.87-0.39,1.66-1.05,2.38-1.98c0.56-0.72,1.04-1.5,1.44-2.32c0.45-0.99,1.04-1.88,1.76-2.68
		c1.17-0.99,2.4-1.48,3.68-1.48c1.23,0,2.3,0.47,3.2,1.4c0.08,0.08,0.15,0.16,0.2,0.24C89.7,76.12,89.85,77.36,89.69,78.65z"/>
	<path class="st1" d="M115.2,7.75c-0.32-0.72-0.85-1.25-1.58-1.58c-0.74-0.33-1.61-0.5-2.62-0.5c-0.48,0-0.95,0.01-1.4,0.04
		c-2.46,0.16-4.89,0.24-7.29,0.24L74.63,5.99c-2.03,0-4.18,0.55-6.45,1.64c-2.35,1.31-4.11,3.01-5.27,5.11
		c-1.16,2.1-1.89,4.39-2.18,6.87c-0.19,1.55,0.03,3.06,0.64,4.53l2.16,4.85c0.43,1.01,1.05,1.85,1.88,2.5
		c0.83,0.65,1.86,0.98,3.08,0.98c1.55,0,3-0.55,4.35-1.66c1.35-1.11,2.15-2.49,2.42-4.15c0.08-0.88-0.04-1.6-0.36-2.16l-1.28-3.04
		c0.27-0.4,0.71-0.76,1.34-1.08c0.63-0.32,1.18-0.51,1.66-0.56l-4.41,35.77c-0.13,0.75-0.49,1.24-1.06,1.46
		c-0.58,0.23-1.18,0.34-1.82,0.34c-0.72,0-1.34,0.24-1.86,0.72c-0.52,0.48-0.94,1.06-1.24,1.74c-0.31,0.68-0.5,1.33-0.58,1.94
		c-0.05,0.4-0.05,0.85,0,1.36c0.05,0.51,0.17,1,0.36,1.48l2.16,4.85c0.19,0.45,0.46,0.83,0.82,1.12c0.36,0.29,0.82,0.44,1.38,0.44
		h34.77c0.77,0,1.45-0.21,2.04-0.62c0.59-0.41,1.09-0.94,1.52-1.58c1.49-2.14,2.9-4.35,4.21-6.65c0.69-1.23,1.15-2.52,1.36-3.89
		c0.08-0.56,0-1.07-0.24-1.52l-2.12-4.89c-0.51-1.04-1.36-1.56-2.56-1.56c-0.7,0-1.31,0.22-1.84,0.66
		c-0.54,0.44-1.02,0.93-1.44,1.46c-0.08,0.08-0.16,0.16-0.24,0.24c-0.05,0.11-0.12,0.2-0.2,0.28l-0.32,0.36
		c-1.2,1.39-2.6,2.43-4.21,3.12c-1.12,0.43-2.57,0.69-4.35,0.78c-1.78,0.09-3.24,0.14-4.39,0.14c-1.18,0-2.31-0.04-3.4-0.12
		c-0.11-0.03-0.2-0.04-0.28-0.04l1.48-11.98c0.64-0.05,1.28-0.08,1.92-0.08c1.25,0,2.35,0.17,3.28,0.52c0.93,0.35,1.75,1.01,2.44,2
		l0.32,0.44l0.4,0.44c0.24,0.29,0.55,0.53,0.94,0.7c0.39,0.17,0.9,0.26,1.54,0.26c1.52,0,2.78-0.76,3.76-2.28
		c0.13-0.32,0.29-0.93,0.48-1.82c0.19-0.89,0.35-1.82,0.48-2.76c0.13-0.95,0.23-1.63,0.28-2.06l0.24-1.96
		c0.03-0.32,0.08-0.65,0.16-1c0.05-0.37,0.11-0.76,0.16-1.16c0.21-1.2,0.15-2.35-0.2-3.44l-2.12-4.89
		c-0.54-1.12-1.43-1.68-2.68-1.68c-0.88,0-1.58,0.25-2.1,0.74c-0.52,0.49-0.94,1.14-1.26,1.94l-0.32,0.84l-0.48,0.68
		c-0.29,0.32-0.68,0.57-1.16,0.76c-0.56,0.19-1.24,0.31-2.04,0.38c-0.8,0.07-1.6,0.11-2.4,0.14l0.88-7.49
		c0.08-0.93,0.27-1.76,0.58-2.48c0.31-0.72,0.93-1.33,1.86-1.84c1.09-0.51,2.28-0.76,3.56-0.76c1.68,0,3.28,0.12,4.79,0.36
		c1.51,0.24,2.88,0.74,4.11,1.5c1.23,0.76,2.26,1.9,3.08,3.42c0.32,0.64,0.75,1.24,1.3,1.8c0.55,0.56,1.29,0.84,2.22,0.84
		c1.55,0,2.52-0.89,2.92-2.68c0.08-0.85,0.04-1.67-0.12-2.44c-0.08-0.59-0.11-1.25-0.1-2c0.01-0.75,0.06-1.45,0.14-2.12
		c0.08-0.53,0.17-1.04,0.28-1.52c0.11-0.48,0.19-0.96,0.24-1.44c0.13-1.01,0.05-1.84-0.24-2.48L115.2,7.75z M114.76,11.24
		c-0.03,0.05-0.05,0.12-0.06,0.2c-0.01,0.08-0.02,0.15-0.02,0.2c-0.11,0.51-0.19,1-0.24,1.48c-0.19,1.47-0.2,2.92-0.04,4.37
		c0.03,0.03,0.04,0.05,0.04,0.08c0.11,0.69,0.13,1.38,0.08,2.04c-0.08,0.64-0.33,1.22-0.76,1.72c-0.51,0.43-1.07,0.64-1.68,0.64
		c-0.4,0-0.8-0.09-1.2-0.28c-0.86-0.53-1.48-1.25-1.88-2.16c-1.34-2.32-3.06-3.83-5.17-4.53c-2.11-0.69-4.47-1.03-7.09-1
		c-1.9,0-3.5,0.45-4.81,1.36c-1.12,1.1-1.74,2.43-1.84,4.01c-0.03,0.35-0.05,0.68-0.08,1l-1.48,12.06h0.08
		c0.53,0.03,1.05,0.04,1.56,0.04c1.52,0,3.03-0.08,4.53-0.24c0.96-0.08,1.79-0.33,2.48-0.74c0.69-0.41,1.19-1.11,1.48-2.1
		c0.21-0.64,0.53-1.2,0.96-1.68c0.59-0.51,1.23-0.76,1.92-0.76c0.19,0,0.37,0.01,0.56,0.04c1.25,0.35,1.91,1.19,1.96,2.52
		c0.03,0.45-0.08,1.74-0.32,3.85c-0.11,0.72-0.21,1.52-0.32,2.4c-0.48,3.58-0.88,5.73-1.2,6.45c-0.56,0.93-1.36,1.56-2.4,1.88
		c-0.35,0.08-0.67,0.12-0.96,0.12c-0.7,0-1.32-0.21-1.88-0.64c-0.4-0.32-0.74-0.69-1-1.12c-0.16-0.29-0.36-0.56-0.6-0.8
		c-0.7-0.64-1.51-1.1-2.44-1.38c-0.94-0.28-1.94-0.42-3-0.42c-0.08,0-0.16,0-0.24,0c-0.67,0-1.36,0.04-2.08,0.12l-1.76,14.5
		c-0.13,1.12,0.09,1.92,0.68,2.4c0.59,0.48,1.36,0.77,2.32,0.86c0.96,0.09,1.92,0.14,2.88,0.14c0.27,0,0.52,0,0.76,0
		c4.3,0,7.22-0.32,8.77-0.96c1.6-0.64,3.07-1.74,4.41-3.28l0.44-0.48c0.4-0.61,0.87-1.15,1.42-1.62c0.55-0.47,1.15-0.7,1.82-0.7
		c0.27,0,0.55,0.05,0.84,0.16c1.17,0.56,1.65,1.47,1.44,2.72c-0.16,1.1-0.6,2.28-1.32,3.54c-0.72,1.27-1.46,2.48-2.2,3.62
		c-0.03,0.03-0.07,0.07-0.12,0.12c-0.19,0.29-0.36,0.57-0.52,0.84c-0.56,0.85-0.99,1.5-1.28,1.92c-0.4,0.56-0.86,1.03-1.36,1.4
		c-0.51,0.37-1.1,0.56-1.76,0.56H68.3c-0.72,0-1.29-0.38-1.7-1.14c-0.41-0.76-0.57-1.69-0.46-2.78c0.16-1.09,0.54-2.02,1.14-2.78
		c0.6-0.76,1.26-1.14,1.98-1.14c0.75,0,1.47-0.15,2.16-0.46c0.69-0.31,1.12-0.91,1.28-1.82l4.65-37.73
		c0.11-0.93-0.07-1.73-0.52-2.38c-0.46-0.65-1.15-0.98-2.08-0.98c-0.59,0-1.34,0.24-2.26,0.72c-0.92,0.48-1.48,1.08-1.66,1.8
		c0,0.16,0.01,0.3,0.04,0.42c0.03,0.12,0.09,0.27,0.2,0.44c0.11,0.17,0.27,0.39,0.48,0.66c0.16,0.24,0.36,0.53,0.6,0.88
		c0.45,0.67,0.63,1.46,0.52,2.36c-0.03,0.24-0.08,0.49-0.16,0.76c-0.37,1.26-1.15,2.34-2.32,3.24c-1.18,0.91-2.43,1.36-3.76,1.36
		c-1.26,0-2.29-0.39-3.1-1.16c-0.82-0.77-1.4-1.72-1.76-2.84c-0.36-1.12-0.48-2.27-0.34-3.44v-0.08c0.51-3.52,1.53-6.21,3.06-8.07
		c1.53-1.86,3.16-3.14,4.89-3.85c1.72-0.71,3.14-1.09,4.26-1.14h0.2c0.19-0.03,0.35-0.04,0.48-0.04c0.24,0,0.4-0.01,0.48-0.04
		l27.68-0.04c0.27,0,0.53,0,0.8,0c0.29,0,0.57,0,0.84,0c1.92,0,3.81-0.08,5.65-0.24c0.35-0.03,0.68-0.04,1-0.04
		c0.13,0,0.28,0,0.44,0c0.88,0,1.68,0.17,2.38,0.5c0.71,0.33,1.21,0.87,1.5,1.62c0.16,0.61,0.21,1.27,0.16,1.96
		C114.98,10.56,114.89,10.89,114.76,11.24z"/>
	<path class="st1" d="M189.04,10.26c-0.25-0.92-0.49-1.66-0.7-2.22c-0.43-1.28-1.58-1.92-3.44-1.92l-13.38,0.04
		c-0.48,0-0.95-0.03-1.4-0.08c-0.46-0.03-0.91-0.04-1.36-0.04c-2.94,0-4.62,1.58-5.05,4.73c-0.13,1.12-0.04,1.98,0.28,2.56
		l2.12,4.85c0.29,0.59,0.75,0.99,1.36,1.22c0.61,0.23,1.24,0.34,1.88,0.34l-2.08,16.9c0,0.16-0.03,0.39-0.1,0.68
		c-0.07,0.29-0.16,0.57-0.28,0.82c-0.12,0.25-0.29,0.38-0.5,0.38c-0.11,0-0.23-0.06-0.36-0.18c-0.13-0.12-0.25-0.25-0.34-0.4
		c-0.09-0.15-0.17-0.27-0.22-0.38c-2.88-5.31-5.63-10.68-8.25-16.1c-2.06-4.3-4.37-8.38-6.93-12.26c-0.13-0.21-0.27-0.41-0.4-0.6
		c-0.24-0.43-0.51-0.83-0.8-1.2c-0.48-0.53-1.03-0.9-1.64-1.1c-0.62-0.2-1.27-0.3-1.96-0.3l-9.53,0.12c-1.52,0-3.02,0.15-4.49,0.46
		c-1.47,0.31-2.92,0.89-4.37,1.74c-2.11,1.31-3.87,2.94-5.29,4.91c-1.42,1.96-2.28,4.15-2.6,6.55c-0.19,1.52,0.03,3.02,0.64,4.49
		l2.12,4.85c0.45,1.01,1.09,1.85,1.92,2.5c0.83,0.65,1.88,0.98,3.16,0.98c1.79,0,3.28-0.41,4.49-1.24c1.2-0.83,1.94-2.22,2.2-4.17
		c0.11-0.99-0.01-1.82-0.36-2.48l-1.36-3.08c0.29-0.45,0.77-0.85,1.42-1.18c0.66-0.33,1.22-0.5,1.7-0.5h0.2l-4.41,35.93
		c-0.13,0.75-0.5,1.24-1.1,1.46c-0.6,0.23-1.21,0.34-1.82,0.34c-0.72,0-1.34,0.23-1.86,0.68c-0.52,0.45-0.93,1.01-1.24,1.66
		c-0.31,0.65-0.49,1.3-0.54,1.94c-0.05,0.4-0.06,0.85-0.02,1.36c0.04,0.51,0.17,1,0.38,1.48l2.16,4.85c0.19,0.45,0.45,0.83,0.8,1.12
		c0.35,0.29,0.8,0.44,1.36,0.44h16.58c0.72,0,1.34-0.24,1.86-0.72c0.52-0.48,0.93-1.06,1.24-1.74c0.31-0.68,0.5-1.33,0.58-1.94
		c0.11-0.85-0.01-1.76-0.36-2.72l-2.12-4.85c-0.21-0.45-0.5-0.83-0.86-1.12c-0.36-0.29-0.82-0.44-1.38-0.44l2.2-18.18l0.32,0.64
		c0.27,0.51,1.17,2.12,2.72,4.83c1.55,2.71,3.28,5.73,5.21,9.07c1.92,3.34,3.58,6.17,4.97,8.49c0.19,0.29,0.37,0.6,0.56,0.92
		c0.56,0.96,1.15,1.94,1.76,2.92c0.85,1.36,1.71,2.59,2.56,3.68c0.61,0.72,1.36,1.23,2.24,1.54c0.88,0.31,1.8,0.46,2.76,0.46
		c1.33,0,2.54-0.36,3.6-1.08c1.07-0.72,1.94-1.65,2.6-2.78c0.67-1.14,1.09-2.34,1.28-3.62l5.21-43.02c0.08-0.67,0.21-1.12,0.38-1.36
		c0.17-0.24,0.54-0.36,1.1-0.36c0.16,0,0.32,0,0.48,0c0.19,0,0.37,0,0.56,0c0.19,0,0.37,0,0.56,0c0.96,0,1.82-0.23,2.56-0.7
		c0.75-0.47,1.2-1.25,1.36-2.34c0.05-0.32,0.11-0.65,0.16-1c0.05-0.32,0.09-0.63,0.12-0.92c0.03-0.37-0.05-1-0.22-1.88
		C189.5,12.08,189.29,11.18,189.04,10.26z M187.3,9.47l-0.28,2.44c-0.19,1.1-0.67,1.8-1.46,2.12c-0.79,0.32-1.6,0.48-2.42,0.48
		h-0.56c-0.27-0.03-0.52-0.04-0.76-0.04c-0.48,0-0.87,0.15-1.18,0.44c-0.31,0.29-0.51,0.88-0.62,1.76l-5.25,43.02
		c-0.35,2.06-1.15,3.74-2.4,5.05c-1.26,1.31-2.79,1.96-4.61,1.96c-0.13,0-0.27,0-0.4,0c-1.9-0.16-3.28-0.79-4.17-1.88
		c-0.91-1.09-2.52-3.58-4.85-7.45l-11.58-19.91c-1.58-2.86-2.34-4.53-2.28-5.01l-2.84,23.15c-0.16,0.75-0.03,1.4,0.4,1.96
		c0.43,0.37,0.91,0.56,1.44,0.56c0.16,0,0.33,0,0.52,0h0.52c0.72,0,1.29,0.35,1.72,1.06c0.43,0.71,0.59,1.62,0.48,2.74
		c-0.16,1.1-0.54,2.02-1.14,2.78c-0.6,0.76-1.26,1.14-1.98,1.14h-16.58c-0.72,0-1.3-0.38-1.72-1.14c-0.43-0.76-0.58-1.69-0.44-2.78
		c0.13-1.12,0.5-2.04,1.1-2.74c0.6-0.71,1.26-1.06,1.98-1.06c0.75,0,1.48-0.15,2.18-0.46c0.71-0.31,1.14-0.91,1.3-1.82l4.73-38.45
		c-0.13-0.83-0.48-1.5-1.04-2.02s-1.24-0.78-2.04-0.78c-0.7,0-1.46,0.24-2.28,0.72c-0.83,0.48-1.32,1.1-1.48,1.84
		c-0.03,0.29,0.04,0.56,0.2,0.8c0.19,0.24,0.57,0.83,1.16,1.76c0.43,0.72,0.59,1.59,0.48,2.6c-0.05,0.29-0.12,0.6-0.2,0.92
		c-0.54,2.67-2.52,4.01-5.97,4.01c-1.28,0-2.34-0.38-3.16-1.14c-0.83-0.76-1.43-1.7-1.8-2.82c-0.37-1.12-0.48-2.28-0.32-3.48v-0.04
		c0-0.08,0-0.15,0-0.2c0.24-1.82,0.99-3.71,2.24-5.69c1.28-2.03,3.08-3.76,5.41-5.21c2.24-1.39,4.99-2.08,8.25-2.08
		c0.11,0,0.2,0,0.28,0l8.25-0.08h0.72c0.21-0.03,0.41-0.04,0.6-0.04c0.75,0,1.45,0.13,2.12,0.4c0.4,0.19,0.77,0.47,1.1,0.86
		c0.33,0.39,0.62,0.79,0.86,1.22l0.32,0.52c3.6,5.63,6.79,11.52,9.57,17.66c1.68,3.68,3.55,7.25,5.61,10.69
		c0.45,0.77,0.91,1.16,1.36,1.16c0.64,0,1.09-0.79,1.36-2.36l2.44-19.95c0.08-0.75,0.01-1.28-0.22-1.6c-0.23-0.32-0.56-0.51-1-0.58
		c-0.44-0.07-0.92-0.1-1.42-0.1c-0.48,0-0.95-0.03-1.42-0.1c-0.47-0.07-0.87-0.25-1.22-0.54c-0.43-0.43-0.67-0.97-0.72-1.64
		c-0.05-0.48-0.04-0.97,0.04-1.48c0.08-0.88,0.36-1.68,0.84-2.4s1.19-1.23,2.12-1.52c0.48-0.13,0.96-0.2,1.44-0.2
		c0.24,0,0.47,0.01,0.68,0.04c0.43,0.03,1.29,0.05,2.58,0.06c1.3,0.01,2.72,0.02,4.27,0.02c1.39,0,2.75-0.01,4.09-0.02
		c1.33-0.01,2.86-0.02,4.57-0.02c1.2,0,1.95,0.28,2.24,0.84C187.35,7.99,187.43,8.67,187.3,9.47z"/>
	<path class="st1" d="M245.57,7.59c-0.32-1.04-1.48-1.56-3.48-1.56h-15.26c-1.18,0-2.1,0.17-2.76,0.52
		c-1.23,0.72-1.91,2.11-2.04,4.17c-0.05,0.4-0.09,0.83-0.12,1.3c-0.03,0.47,0.01,0.9,0.12,1.3l2.12,4.89
		c0.24,0.83,0.73,1.32,1.48,1.48l1.08,0.16l0.56,0.04l-0.44,3.68c-0.37,2.99-0.75,5.98-1.12,8.97c-0.37,3.02-0.75,6.02-1.12,9.01
		c-0.19,1.9-0.57,4.02-1.14,6.37c-0.57,2.35-1.52,4.19-2.82,5.53c-0.83,0.75-1.64,1.23-2.42,1.44c-0.79,0.21-1.73,0.32-2.82,0.32
		c-2,0-3.56-0.53-4.69-1.6c0-0.24-0.01-0.45-0.04-0.64c-0.11-2.43,0.04-4.87,0.44-7.33c0.35-2.86,0.68-5.73,1-8.61
		c0.35-2.88,0.69-5.75,1.04-8.61l0.8-6.33c0.11-0.75,0.41-1.31,0.9-1.68c0.49-0.37,1.1-0.56,1.82-0.56c1.57,0,2.68-0.33,3.31-1
		c0.63-0.67,1.02-1.79,1.18-3.36c0.19-1.33,0.13-2.38-0.16-3.12l-2.16-4.85c-0.32-1.04-1.48-1.56-3.48-1.56h-19.19
		c-1.15,0-2.06,0.17-2.72,0.52c-1.23,0.72-1.92,2.11-2.08,4.17c-0.19,1.26-0.13,2.24,0.16,2.96l2.12,4.85c0.32,0.88,1.32,1.35,3,1.4
		c-0.96,7.9-1.92,15.81-2.88,23.71c-0.35,2.54-0.47,5.13-0.38,7.79c0.09,2.66,0.61,5.11,1.54,7.35l2.16,4.85
		c1.04,2.3,2.44,4.12,4.18,5.47c1.75,1.35,3.76,2.3,6.03,2.86c2.27,0.56,4.69,0.84,7.25,0.84c1.9,0,3.85-0.17,5.87-0.52
		c2.02-0.35,3.95-0.97,5.79-1.86c1.84-0.89,3.47-2.14,4.89-3.74c1.98-2.35,3.39-4.82,4.25-7.41c0.85-2.59,1.43-5.3,1.72-8.13
		c0.45-3.76,0.89-7.54,1.32-11.34c0.43-3.76,0.87-7.53,1.32-11.29l0.76-6.25c0.13-0.88,0.41-1.45,0.84-1.72
		c0.43-0.27,1.03-0.44,1.8-0.52l1.12-0.08c1.41-0.11,2.36-0.53,2.82-1.26c0.47-0.73,0.75-1.74,0.86-3.02
		c0.19-1.33,0.12-2.38-0.2-3.12L245.57,7.59z M245.29,10.76c-0.11,0.99-0.31,1.79-0.6,2.4c-0.43,0.96-1.62,1.44-3.56,1.44
		c-1.98,0-3.07,0.91-3.28,2.72l-0.76,6.25l-2.28,19.35l-0.2,1.52c-0.05,0.77-0.15,1.64-0.28,2.6c-0.16,1.6-0.47,3.32-0.94,5.15
		c-0.47,1.83-1.16,3.64-2.08,5.43c-0.92,1.79-2.18,3.42-3.78,4.89c-1.6,1.47-3.63,2.65-6.09,3.54c-2.46,0.89-5.45,1.34-8.97,1.34
		c-4.01,0-7.24-0.55-9.69-1.66c-2.46-1.11-4.34-2.55-5.65-4.33c-1.31-1.78-2.2-3.72-2.66-5.85c-0.47-2.12-0.68-4.23-0.64-6.31
		c0.04-2.08,0.18-3.98,0.42-5.69l2.36-19.67l0.84-6.65c0.05-1.82-0.82-2.72-2.6-2.72c-1.82,0-2.82-0.48-3-1.44
		c-0.13-0.61-0.13-1.41,0-2.4c0.05-0.51,0.15-1.05,0.28-1.64c0.35-1.74,1.68-2.6,4.01-2.6h19.19c2.32,0,3.46,0.87,3.4,2.6
		c-0.03,0.59-0.08,1.14-0.16,1.64c-0.11,0.99-0.31,1.79-0.6,2.4c-0.46,0.96-1.58,1.44-3.36,1.44c-1.82,0-2.9,0.91-3.24,2.72
		l-0.8,6.33l-2.08,17.22l-0.08,0.76c-0.03,0.21-0.05,0.43-0.08,0.64c-0.24,1.95-0.32,3.94-0.24,5.97c0.08,2.27,0.79,4.17,2.12,5.69
		c0.72,0.67,1.52,1.14,2.4,1.42c0.88,0.28,1.8,0.42,2.76,0.42c0.88,0,1.8-0.1,2.76-0.3c0.96-0.2,1.9-0.74,2.8-1.62
		c0.91-0.88,1.72-2.29,2.44-4.23c0.72-1.94,1.29-4.6,1.72-7.99c0.24-1.95,0.99-7.94,2.24-17.98l0.76-6.25
		c0.24-1.82-0.58-2.72-2.44-2.72c-1.9,0-2.94-0.48-3.12-1.44c-0.13-0.61-0.13-1.41,0-2.4c0.05-0.51,0.13-1.05,0.24-1.64
		c0.35-1.74,1.68-2.6,4.01-2.6h15.26c2.32,0,3.46,0.87,3.4,2.6C245.39,9.7,245.35,10.25,245.29,10.76z"/>
</g>
</svg>
